<?xml version="1.0" encoding="UTF-8" standalone="no"?>
<svg
   xmlns:dc="http://purl.org/dc/elements/1.1/"
   xmlns:cc="http://creativecommons.org/ns#"
   xmlns:rdf="http://www.w3.org/1999/02/22-rdf-syntax-ns#"
   xmlns:svg="http://www.w3.org/2000/svg"
   xmlns="http://www.w3.org/2000/svg"
   xmlns:sodipodi="http://sodipodi.sourceforge.net/DTD/sodipodi-0.dtd"
   xmlns:inkscape="http://www.inkscape.org/namespaces/inkscape"
   width="102"
   height="79"
   fill="#f74f78"
   fill-rule="evenodd"
   version="1.1"
   id="svg2133"
   sodipodi:docname="02.svg"
   inkscape:version="1.0 (4035a4f, 2020-05-01)">
  <metadata
     id="metadata2139">
    <rdf:RDF>
      <cc:Work
         rdf:about="">
        <dc:format>image/svg+xml</dc:format>
        <dc:type
           rdf:resource="http://purl.org/dc/dcmitype/StillImage" />
      </cc:Work>
    </rdf:RDF>
  </metadata>
  <defs
     id="defs2137" />
  <sodipodi:namedview
     inkscape:document-rotation="0"
     pagecolor="#ffffff"
     bordercolor="#666666"
     borderopacity="1"
     objecttolerance="10"
     gridtolerance="10"
     guidetolerance="10"
     inkscape:pageopacity="0"
     inkscape:pageshadow="2"
     inkscape:window-width="1386"
     inkscape:window-height="793"
     id="namedview2135"
     showgrid="false"
     inkscape:zoom="6.0945595"
     inkscape:cx="57.338018"
     inkscape:cy="46.82704"
     inkscape:window-x="42"
     inkscape:window-y="23"
     inkscape:window-maximized="0"
     inkscape:current-layer="svg2133" />
  <path
     id="path974"
     d="m 49.529726,64.868366 v 6.285027 z"
     style="fill:none;stroke:#fbd0de;stroke-width:1.84834;stroke-linecap:round;stroke-linejoin:miter;stroke-miterlimit:4;stroke-dasharray:none;stroke-opacity:1" />
  <path
     id="path972"
     d="m 42.136388,64.868366 v 6.285027 z"
     style="fill:none;stroke:#fbd0de;stroke-width:1.84834;stroke-linecap:round;stroke-linejoin:miter;stroke-miterlimit:4;stroke-dasharray:none;stroke-opacity:1" />
  <path
     style="fill:none;stroke:#fbd0de;stroke-width:1.84834;stroke-linecap:round;stroke-linejoin:miter;stroke-miterlimit:4;stroke-dasharray:none;stroke-opacity:1"
     d="m 35.949374,64.868366 v 6.285027 z"
     id="path970" />
  <path
     id="path968"
     d="m 29.829381,64.801348 v 6.285027 z"
     style="fill:none;stroke:#fbd0de;stroke-width:1.84834;stroke-linecap:round;stroke-linejoin:miter;stroke-miterlimit:4;stroke-dasharray:none;stroke-opacity:1" />
  <path
     style="fill:none;stroke:#fbd0de;stroke-width:1.84834;stroke-linecap:round;stroke-linejoin:miter;stroke-miterlimit:4;stroke-dasharray:none;stroke-opacity:1"
     d="m 21.244937,64.868366 v 6.285027 z"
     id="path966" />
  <path
     id="path964"
     d="m 15.124945,64.935384 v 6.285028 z"
     style="fill:none;stroke:#fbd0de;stroke-width:1.84834;stroke-linecap:round;stroke-linejoin:miter;stroke-miterlimit:4;stroke-dasharray:none;stroke-opacity:1" />
  <path
     d="M37.86 74.797c17.87 8.716 53.216 3.095 61.932-14.775S82.654 21.966 64.784 13.25 22.77-8.487 14.054 9.383 20 66.08 37.86 74.797z"
     fill-opacity=".1"
     id="path2125"
     style="fill:#f53d7a;fill-opacity:0.09803922" />
  <path
     style="fill:none;stroke:#f74f78;stroke-width:1.38359;stroke-linecap:butt;stroke-linejoin:miter;stroke-miterlimit:4;stroke-dasharray:none;stroke-opacity:1"
     d="m 6.445855,64.662536 v 10.111041 l 49.734312,0.142492 V 64.656587 Z"
     id="path115"
     sodipodi:nodetypes="ccccc" />
  <path
     style="fill:none;stroke:#f74f78;stroke-width:1.84834;stroke-linecap:butt;stroke-linejoin:miter;stroke-miterlimit:4;stroke-dasharray:none;stroke-opacity:1"
     d="M 6.456526,64.674997 3.3140069,64.490144 c 0,0 -0.8949773,-21.393387 1.3162134,-31.605547 C 6.029362,26.03959 9.358402,21.613386 15.699211,19.755532 c 2.372685,-0.678498 4.992926,-0.939023 7.39415,-0.369706 2.06739,0.490165 3.941715,1.749 5.545616,3.142514 4.296745,3.914113 5.483328,9.502838 7.024435,14.788299 0.35663,1.13032 0.959534,2.189116 1.663688,3.142514 1.035414,1.401904 2.269586,2.697226 3.697069,3.697076 1.670836,1.170296 3.677724,1.768062 5.545617,2.587953 2.07461,0.910625 4.260442,1.57094 6.285024,2.587953 1.284238,0.645116 2.586749,1.305778 3.697083,2.218245 1.348164,1.107909 2.661889,2.35814 3.512222,3.88193 0.969256,1.736885 1.329078,3.769784 1.663677,5.730466 0.186866,1.095003 0.184858,3.327368 0.184858,3.327368 z"
     id="path940"
     sodipodi:nodetypes="ccccaccaaaaaaacc" />
  <path
     style="fill:none;stroke:#f74f78;stroke-width:1.84834;stroke-linecap:round;stroke-linejoin:miter;stroke-miterlimit:4;stroke-dasharray:none;stroke-opacity:1"
     d="M 14.159028,64.852132 V 71.13716 Z"
     id="path942" />
  <path
     id="path944"
     d="M 20.320153,64.852132 V 71.13716 Z"
     style="fill:none;stroke:#f74f78;stroke-width:1.84834;stroke-linecap:round;stroke-linejoin:miter;stroke-miterlimit:4;stroke-dasharray:none;stroke-opacity:1" />
  <path
     style="fill:none;stroke:#f74f78;stroke-width:1.84834;stroke-linecap:round;stroke-linejoin:miter;stroke-miterlimit:4;stroke-dasharray:none;stroke-opacity:1"
     d="M 28.945728,64.852132 V 71.13716 Z"
     id="path946" />
  <path
     id="path948"
     d="M 35.106853,64.852132 V 71.13716 Z"
     style="fill:none;stroke:#f74f78;stroke-width:1.84834;stroke-linecap:round;stroke-linejoin:miter;stroke-miterlimit:4;stroke-dasharray:none;stroke-opacity:1" />
  <path
     style="fill:none;stroke:#f74f78;stroke-width:1.84834;stroke-linecap:round;stroke-linejoin:miter;stroke-miterlimit:4;stroke-dasharray:none;stroke-opacity:1"
     d="M 41.267978,64.852132 V 71.13716 Z"
     id="path950" />
  <path
     id="path954"
     d="M 48.661328,64.852132 V 71.13716 Z"
     style="fill:none;stroke:#f74f78;stroke-width:1.84834;stroke-linecap:round;stroke-linejoin:miter;stroke-miterlimit:4;stroke-dasharray:none;stroke-opacity:1" />
  <path
     style="fill:none;stroke:#fbd0de;stroke-width:2.95734;stroke-linecap:round;stroke-linejoin:miter;stroke-miterlimit:4;stroke-dasharray:none;stroke-opacity:1"
     d="m 20.518554,22.180287 c 0,0 -3.798063,0.267751 -5.478534,1.065992 -1.810595,0.860053 -3.411144,2.250518 -4.619661,3.849717 -1.523966,2.016617 -2.467247,4.477144 -3.079774,6.92949 -0.436467,1.747428 -0.300207,3.590488 -0.384971,5.389604 -0.34989,7.425825 -0.509759,22.296361 -0.509759,22.296361"
     id="path960"
     sodipodi:nodetypes="caaaac" />
  <g
     id="g2814"
     transform="matrix(0.8968987,0,0,0.8968987,163.79771,8.035974)"
     style="fill:#f53d7a;fill-opacity:0.0980392;stroke:#f74f78;stroke-opacity:1">
    <g
       id="g2836"
       transform="matrix(0.61472961,0,0,0.61472961,-22.998716,35.929497)">
      <path
         sodipodi:nodetypes="ccssc"
         id="path1485"
         d="m -191.78017,10.664224 c 6.89924,-2.9934198 10.23186,-7.7283298 13.6463,-14.1778598 0.68601,-1.38658 2.15518,-6.05278 3.14513,-9.2949402 0.55844,-1.82894 0.94839,-4.48874 1.32036,-7.19829 0.83145,-6.05652 -0.0847,-11.56361 -0.0847,-11.56361"
         style="fill:none;stroke:#fbd0de;stroke-width:2.12266;stroke-linecap:round;stroke-linejoin:miter;stroke-miterlimit:4;stroke-dasharray:none;stroke-opacity:1" />
      <path
         sodipodi:nodetypes="caaaaaacaaaaaasaaaaaaac"
         id="path2768"
         d="m -171.47529,-34.418176 c 0,0 -4.44335,1.92162 -6.75371,2.62644 -2.45234,0.74814 -4.96564,1.32831 -7.50414,1.68843 -2.04693,0.29039 -4.12362,0.39858 -6.19091,0.37521 -1.50593,-0.017 -3.00486,-0.21627 -4.50248,-0.37521 -1.94372,-0.20628 -3.88945,-0.41851 -5.8157,-0.75041 -2.33286,-0.40197 -4.69625,-0.75017 -6.94132,-1.50083 -1.6983,-0.56784 -4.87768,-2.25124 -4.87768,-2.25124 0,0 -0.25775,4.87789 -0.18761,7.31653 0.0866,3.01081 0.32931,6.02248 0.75042,9.00496 0.4458,3.15732 0.93415,6.3338 1.87603,9.3801602 0.9435,3.05163 2.12754,6.06716 3.75206,8.81736004 1.49515,2.53117996 3.33259,4.89215996 5.4405,6.94131996 1.28243,1.24668 2.71703,2.38568 4.31487,3.1892598 1.34314,0.67548 2.81528,1.20597 4.31488,1.31322 1.64083,0.11735 3.32893,-0.19593 4.87768,-0.75041 1.84778,-0.6615398 3.54156,-1.7646698 5.0653,-3.0016598 1.58068,-1.28321 2.92985,-2.85585 4.12727,-4.50248 1.26819,-1.74394 2.23508,-3.69438996 3.18925,-5.62809 0.99195,-2.01026 1.90386,-4.0689 2.62645,-6.19091 0.95828,-2.8141702 1.78976,-5.6929402 2.25124,-8.6297602 0.51532,-3.27938 0.55624,-6.62335 0.56281,-9.94297 0.005,-2.37959 -0.37521,-7.12892 -0.37521,-7.12892 z"
         style="fill:#ffedf3;fill-opacity:1;stroke:#f74f78;stroke-width:2.68613;stroke-linecap:butt;stroke-linejoin:miter;stroke-miterlimit:4;stroke-dasharray:none;stroke-opacity:1" />
      <path
         sodipodi:nodetypes="caaaaacaaaaac"
         id="path2770"
         d="m -206.40428,-17.269306 c 0,0 1.7843,-1.69101 2.84142,-2.295 0.54049,-0.30882 1.15257,-0.47605 1.74857,-0.65572 0.46534,-0.14027 0.93648,-0.28628 1.42071,-0.32785 0.65432,-0.0562 1.33066,-0.0525 1.96715,0.10928 0.74225,0.18869 1.35813,0.71786 2.07642,0.98357 0.38955,0.14411 1.20215,0.32786 1.20215,0.32786 0,0 -0.9158,-1.69469 -1.63929,-2.295 -0.86545,-0.71809 -1.95665,-1.20322 -3.06,-1.42071 -0.78711,-0.15516 -1.63326,-0.11238 -2.40428,0.10928 -0.92497,0.26592 -1.82718,0.74608 -2.51357,1.42072 -0.51241,0.50363 -0.82079,1.19287 -1.09286,1.85785 -0.28437,0.69507 -0.54642,2.18572 -0.54642,2.18572 z"
         style="fill:#ffffff;fill-opacity:1;stroke:#f74f78;stroke-width:1.54579;stroke-linecap:butt;stroke-linejoin:miter;stroke-miterlimit:4;stroke-dasharray:none;stroke-opacity:1" />
      <path
         sodipodi:nodetypes="caaaacccaaaacc"
         id="path2772"
         d="m -189.90215,-19.127166 c 0,0 1.91992,-0.94631 2.95071,-1.20214 0.71065,-0.17638 1.45438,-0.25434 2.18571,-0.21857 0.74212,0.0363 1.49735,0.15751 2.18572,0.43714 0.68339,0.2776 1.26545,0.76265 1.85785,1.20214 0.49823,0.36962 1.42072,1.20214 1.42072,1.20214 l 0.43714,0.10929 -0.87428,-2.51357 c 0,0 -0.9449,-1.10828 -1.53,-1.53 -0.66082,-0.47629 -1.38889,-0.92376 -2.18572,-1.09286 -0.78478,-0.16654 -1.62171,-0.0673 -2.40428,0.10929 -0.73257,0.16534 -1.44118,0.47373 -2.07643,0.87428 -0.37105,0.23397 -0.98357,0.87429 -0.98357,0.87429 z"
         style="fill:#ffffff;fill-opacity:1;stroke:#f74f78;stroke-width:1.54579;stroke-linecap:butt;stroke-linejoin:miter;stroke-miterlimit:4;stroke-dasharray:none;stroke-opacity:1" />
      <path
         id="path2774"
         d="m -182.90787,-6.3407458 -1.42071,2.84143 c 0,0 -1.32421,1.87038 -2.07643,2.73214004 -0.4743,0.54336 -0.96002,1.08804 -1.53,1.53 -0.73565,0.57040996 -1.52129,1.12595996 -2.40429,1.42070996 -0.9387,0.31335 -1.9653,0.41916 -2.95071,0.32786 -0.87206,-0.0808 -1.73663,-0.36077 -2.51357,-0.765 -0.94383,-0.49106 -1.75915,-1.21692996 -2.51357,-1.96713996 -0.79069,-0.78629004 -2.07643,-2.62286004 -2.07643,-2.62286004 l -1.63928,-2.95071 -0.21857,-0.87429 c 0,0 1.30177,0.81768 1.96714,1.20215 0.79043,0.45672 1.55388,0.97947 2.40428,1.31142 0.8395,0.32771 1.73793,0.4853 2.62286,0.65572 0.79425,0.15296 1.5955,0.3178 2.40428,0.32786 0.98955,0.0123 1.98413,-0.11556 2.95072,-0.32786 0.90012,-0.1977 1.77479,-0.5136 2.62285,-0.87429 0.79471,-0.33799 2.295,-1.20214 2.295,-1.20214 z"
         style="fill:#ffffff;fill-opacity:1;stroke:#f74f78;stroke-width:1.54579;stroke-linecap:butt;stroke-linejoin:miter;stroke-miterlimit:4;stroke-dasharray:none;stroke-opacity:1"
         sodipodi:nodetypes="ccaaaaaacccaaaaaacc" />
      <path
         sodipodi:nodetypes="caaaacaaaaaaaaaaaacaaasc"
         id="path2794"
         d="m -168.18252,-24.093486 c 0,0 4.26505,0.51806 6.40781,0.51263 2.01503,-0.005 4.02348,-0.26574 6.02334,-0.51263 1.58917,-0.19619 3.17838,-0.42288 4.74178,-0.76894 1.69012,-0.37411 3.35322,-0.87038 4.99809,-1.40971 1.73411,-0.56859 5.12625,-1.92235 5.12625,-1.92235 0,0 0.29,5.89932 0.12815,8.84278 -0.11346,2.06334 -0.46366,4.10772 -0.76893,6.1515 -0.29466,1.97267 -0.56016,3.9556102 -1.02525,5.8951802 -0.40646,1.69507 -0.95357,3.35584 -1.53788,4.9981 -0.57172,1.60686004 -1.20389,3.19494004 -1.92234,4.74177 -0.77274,1.66372 -1.55583,3.33681 -2.56312,4.86993 -1.08438,1.65043 -2.32405,3.2133398 -3.71653,4.6136298 -1.0491,1.05498 -2.19151,2.04229 -3.46022,2.81944 -1.35372,0.82923 -2.81423,1.54941 -4.35731,1.92233 -1.41424,0.34178 -2.91987,0.48135 -4.35731,0.25632 -1.40295,-0.21963 -2.73713,-0.83823 -3.97284,-1.53788 -1.69539,-0.95991 -3.26294,-2.18431 -4.61363,-3.58837 -1.67664,-1.74288 -4.22915,-5.8951798 -4.22915,-5.8951798 0,0 2.17257,-3.26285 3.07575,-4.99809996 0.79505,-1.52752 1.4456,-3.12946004 2.0505,-4.74177004 0.78777,-2.09972 1.49305,-4.23556 2.0505,-6.4078102 0.44357,-1.72849 0.88272,-4.46017 1.02524,-5.2544 0.50826,-2.8325 0.8971,-8.58647 0.8971,-8.58647 z"
         style="fill:#f74f78;fill-opacity:1;stroke:#f74f78;stroke-width:1px;stroke-linecap:butt;stroke-linejoin:miter;stroke-opacity:1" />
      <path
         sodipodi:nodetypes="caacccaacc"
         id="path2796"
         d="m -169.87893,-10.252166 c 0.34174,0.3272102 0.93979,-0.0927 1.36732,-0.27536 0.60776,-0.25972 1.13725,-0.68969 1.62638,-1.13419 0.46681,-0.42421 1.22554,-1.44181 1.22554,-1.44181 l 0.50463,-1.15345 0.28836,-1.29762 c 0,0 -0.84301,0.79533 -1.29762,1.15344 -0.52889,0.41663 -1.05357,0.85704 -1.65809,1.15345 -0.49583,0.24312 -1.11771,0.39757 -1.58074,0.49583 0,0 -0.56662,1.8631 -0.47578,2.49971 z"
         style="fill:#ffffff;fill-opacity:1;stroke:#f74f78;stroke-width:0.7;stroke-linecap:butt;stroke-linejoin:miter;stroke-miterlimit:4;stroke-dasharray:none;stroke-opacity:1" />
      <path
         sodipodi:nodetypes="ccaaaaaaaccaaaaaaac"
         id="path2798"
         d="m -159.62859,-15.585416 0.47821,1.84453 c 0,0 0.61029,1.06037 1.02475,1.50296 0.4546,0.48546 1.00439,0.88187 1.57127,1.22969 0.32128,0.19713 0.66604,0.36236 1.02474,0.47822 0.46324,0.14963 0.94866,0.24482 1.43464,0.27326 0.63815,0.0374 1.29357,0.0219 1.91286,-0.13663 0.58243,-0.14905 1.13483,-0.42488 1.63959,-0.75148 0.40647,-0.26301 0.77567,-0.59084 1.09306,-0.95643 0.40992,-0.47219 1.02474,-1.57127 1.02474,-1.57127 l 0.0683,-0.27326 c 0,0 -0.88419,0.55726 -1.36632,0.75147 -0.56875,0.22909 -1.17804,0.34356 -1.77622,0.47822 -0.49677,0.11183 -0.99582,0.22753 -1.50296,0.27326 -0.47628,0.043 -0.96305,0.0793 -1.43464,0 -0.61787,-0.10391 -1.20132,-0.36575 -1.77622,-0.61484 -0.44864,-0.19439 -0.88893,-0.41538 -1.29801,-0.68317 -0.366,-0.23958 -0.69414,-0.53335 -1.02475,-0.81979 -0.37746,-0.32703 -1.09304,-1.02474 -1.09304,-1.02474 z"
         style="fill:#ffffff;fill-opacity:1;stroke:#f74f78;stroke-width:0.7;stroke-linecap:butt;stroke-linejoin:miter;stroke-miterlimit:4;stroke-dasharray:none;stroke-opacity:1" />
      <path
         sodipodi:nodetypes="caaaaaaacccaaaaaac"
         id="path2800"
         d="m -170.01266,6.0708342 c 0,0 0.92269,-1.69366 1.50295,-2.45939 0.52552,-0.6935 1.1098,-1.3534 1.77623,-1.91286 0.70631,-0.59294 1.45727,-1.18450996 2.32275,-1.50294996 0.81911,-0.30138 1.72613,-0.41281 2.59602,-0.34158 0.7826,0.0641 1.54918,0.3379 2.25443,0.68316 0.60153,0.29449 1.14691,0.70768996 1.63959,1.16136996 0.54693,0.50364 0.98028,1.1194 1.43465,1.70791 0.40929,0.53013 1.16137,1.63959 1.16137,1.63959 l 0.61485,1.29801 h -0.27327 c 0,0 -1.74248,-0.98375 -2.66433,-1.36633 -0.75161,-0.31192 -1.52871,-0.57341 -2.32275,-0.75148 -0.69454,-0.15576 -1.40648,-0.24791 -2.11781,-0.27326 -0.79782,-0.0284 -1.60503,-0.003 -2.39107,0.13663 -0.77314,0.13722 -1.52047,0.40411 -2.25443,0.68316 -0.60953,0.23174 -1.16832,0.58385 -1.77623,0.8198 -0.49011,0.19023 -1.50295,0.47822 -1.50295,0.47822 z"
         style="fill:#ffffff;fill-opacity:1;stroke:#f74f78;stroke-width:0.7;stroke-linecap:butt;stroke-linejoin:miter;stroke-miterlimit:4;stroke-dasharray:none;stroke-opacity:1" />
      <path
         style="fill:#ffffff;fill-opacity:1;stroke:#ffffff;stroke-width:0.0576906;stroke-linecap:butt;stroke-linejoin:miter;stroke-miterlimit:4;stroke-dasharray:none;stroke-opacity:1"
         d="m -169.13228,-12.406516 -1.03397,0.21184 -0.48744,2.03367 1.24077,-0.38131 z"
         id="path2855" />
    </g>
  </g>
</svg>
