<?xml version="1.0" encoding="UTF-8" standalone="no"?>
<svg
   xmlns:dc="http://purl.org/dc/elements/1.1/"
   xmlns:cc="http://creativecommons.org/ns#"
   xmlns:rdf="http://www.w3.org/1999/02/22-rdf-syntax-ns#"
   xmlns:svg="http://www.w3.org/2000/svg"
   xmlns="http://www.w3.org/2000/svg"
   xmlns:sodipodi="http://sodipodi.sourceforge.net/DTD/sodipodi-0.dtd"
   xmlns:inkscape="http://www.inkscape.org/namespaces/inkscape"
   inkscape:version="1.0 (4035a4f, 2020-05-01)"
   sodipodi:docname="04back.svg"
   id="svg1486"
   version="1.1"
   fill-rule="evenodd"
   fill="#16c995"
   height="79"
   width="98">
  <metadata
     id="metadata1492">
    <rdf:RDF>
      <cc:Work
         rdf:about="">
        <dc:format>image/svg+xml</dc:format>
        <dc:type
           rdf:resource="http://purl.org/dc/dcmitype/StillImage" />
      </cc:Work>
    </rdf:RDF>
  </metadata>
  <defs
     id="defs1490" />
  <sodipodi:namedview
     inkscape:current-layer="svg1486"
     inkscape:window-maximized="0"
     inkscape:window-y="23"
     inkscape:window-x="0"
     inkscape:cy="34.576345"
     inkscape:cx="15.954266"
     inkscape:zoom="3.84215"
     inkscape:guide-bbox="true"
     showguides="true"
     showgrid="false"
     id="namedview1488"
     inkscape:window-height="794"
     inkscape:window-width="1306"
     inkscape:pageshadow="2"
     inkscape:pageopacity="0"
     guidetolerance="10"
     gridtolerance="10"
     objecttolerance="10"
     borderopacity="1"
     bordercolor="#666666"
     pagecolor="#ffffff"
     inkscape:document-rotation="0">
    <sodipodi:guide
       id="guide2084"
       orientation="1,0"
       position="-23.839745,86.274042" />
    <sodipodi:guide
       id="guide2086"
       orientation="0,-1"
       position="-53.415763,97.464708" />
  </sodipodi:namedview>
  <circle
     style="fill:#0a5741;fill-opacity:1;stroke:#0b6249;stroke-width:0.7;stroke-linecap:round;stroke-miterlimit:4;stroke-dasharray:none;stroke-opacity:1"
     id="circle2121"
     cx="61.296227"
     cy="19.269506"
     r="0.54161757" />
  <circle
     r="0.54161757"
     cy="15.269506"
     cx="61.296227"
     id="path2115"
     style="fill:#0a5741;fill-opacity:1;stroke:#0b6249;stroke-width:0.7;stroke-linecap:round;stroke-miterlimit:4;stroke-dasharray:none;stroke-opacity:1" />
  <path
     id="path1478"
     opacity="0.1"
     d="m 62.430325,5.2852153 c -17.87,-8.716 -53.216,-3.095 -61.93200037,14.7750007 -8.71599993,17.87 17.13800037,38.057 35.00800037,46.773 17.87,8.716 42.014,21.737 50.73,3.867 8.715995,-17.87 -5.936,-56.698 -23.806,-65.4140007 z" />
  <circle
     style="fill:#0a5741;fill-opacity:1;stroke:#0b6249;stroke-width:0.7;stroke-linecap:round;stroke-miterlimit:4;stroke-dasharray:none;stroke-opacity:1"
     id="circle2117"
     cx="61.296227"
     cy="11.269506"
     r="0.54161757" />
  <g
     transform="translate(41.300912,-27.506552)"
     id="g1484"
     fill-rule="nonzero">
    <path
       id="path1480"
       opacity="0.2"
       d="m 29.185,55.925 h 3.383 V 78 H 29.185 Z M 15.3,45.8 h 3.383 V 78 H 15.3 Z M 2.42,35.075 2.007,78 H 5.4 L 5.813,35.075 Z M 43.52,64.885 43.343,78 h 3.383 l 0.165,-13.114 z" />
    <path
       sodipodi:nodetypes="ccsscsscsssccccssssccccccccccccccccccccccccc"
       id="path1482"
       d="m 55.317,63.03 h -12.05 v -8.337 c 0,-0.38 -0.306,-0.7 -0.683,-0.7 H 28.8 v -9.5 c 0,-0.38 -0.306,-0.7 -0.683,-0.7 H 14.797 V 33.7 c 0,-0.38 -0.306,-0.7 -0.683,-0.7 h -13 c -0.375,0 -0.68,0.305 -0.683,0.683 L 0,78.304 c -0.002,0.184 0.07,0.36 0.198,0.492 0.12774354,0.130325 0.30250919,0.203834 0.485,0.204 H 55.317 C 55.694,79 56,78.7 56,78.3 V 63.7 C 56,63.32 55.694,63 55.317,63 v 0 z M 41.9,55.384 v 8.337 l -0.176,13.9 H 28.8 V 55.384 Z M 27.436,45.184 V 77.62 H 14.798 V 45.185 H 27.436 Z M 1.8,34.38 H 13.442 V 77.62 H 1.373 Z M 54.634,77.62 H 43.1 l 0.167,-13.2 h 11.377 v 13.2 z" />
  </g>
  <circle
     r="0.54161757"
     cy="17.269506"
     cx="65.296227"
     id="circle2119"
     style="fill:#0a5741;fill-opacity:1;stroke:#0b6249;stroke-width:0.7;stroke-linecap:round;stroke-miterlimit:4;stroke-dasharray:none;stroke-opacity:1" />
  <circle
     r="0.54161757"
     cy="17.269506"
     cx="59.296227"
     id="circle2123"
     style="fill:#0a5741;fill-opacity:1;stroke:#0b6249;stroke-width:0.7;stroke-linecap:round;stroke-miterlimit:4;stroke-dasharray:none;stroke-opacity:1" />
  <g
     transform="matrix(1.2225477,0,0,1.2225477,29.602193,-38.831773)"
     id="g2113">
    <rect
       style="fill:#ffffff;fill-opacity:1;stroke:none;stroke-width:1.03622;stroke-miterlimit:4;stroke-dasharray:none"
       id="rect2100"
       width="9.9628458"
       height="0.77488858"
       x="42.301632"
       y="16.695986"
       transform="rotate(35.335853)" />
    <rect
       transform="rotate(35.335853)"
       y="19.129747"
       x="40.560875"
       height="0.77488858"
       width="9.9628458"
       id="rect2102"
       style="fill:#ffffff;fill-opacity:1;stroke:none;stroke-width:1.03622;stroke-miterlimit:4;stroke-dasharray:none" />
    <g
       id="g3206">
      <path
         d="M 26.703792,32.918139 A 11.832452,11.832451 0 0 0 14.94598,44.75017 11.832452,11.832451 0 0 0 26.778011,56.582201 11.832452,11.832451 0 0 0 38.610042,44.75017 11.832452,11.832451 0 0 0 26.778011,32.918139 a 11.832452,11.832451 0 0 0 -0.07422,0 z m 0.148438,3.167969 a 8.5193624,8.5193615 0 0 1 0.246094,0.0039 8.5193624,8.5193615 0 0 1 0.24414,0.0098 8.5193624,8.5193615 0 0 1 0.246094,0.01758 8.5193624,8.5193615 0 0 1 0.244141,0.02539 8.5193624,8.5193615 0 0 1 0.242187,0.03125 8.5193624,8.5193615 0 0 1 0.242188,0.03906 8.5193624,8.5193615 0 0 1 0.242187,0.04687 8.5193624,8.5193615 0 0 1 0.238281,0.05078 8.5193624,8.5193615 0 0 1 0.238282,0.06055 8.5193624,8.5193615 0 0 1 0.236328,0.06641 8.5193624,8.5193615 0 0 1 0.234375,0.07227 8.5193624,8.5193615 0 0 1 0.232422,0.08008 8.5193624,8.5193615 0 0 1 0.230469,0.08594 8.5193624,8.5193615 0 0 1 0.226562,0.09375 8.5193624,8.5193615 0 0 1 0.224609,0.09961 8.5193624,8.5193615 0 0 1 0.220703,0.105468 8.5193624,8.5193615 0 0 1 0.21875,0.113282 8.5193624,8.5193615 0 0 1 0.214844,0.11914 8.5193624,8.5193615 0 0 1 0.210938,0.123047 8.5193624,8.5193615 0 0 1 0.208984,0.13086 8.5193624,8.5193615 0 0 1 0.203125,0.136718 8.5193624,8.5193615 0 0 1 0.199219,0.142578 8.5193624,8.5193615 0 0 1 0.195312,0.148438 8.5193624,8.5193615 0 0 1 0.191407,0.154297 8.5193624,8.5193615 0 0 1 0.1875,0.158203 8.5193624,8.5193615 0 0 1 0.18164,0.166015 8.5193624,8.5193615 0 0 1 0.177735,0.169922 8.5193624,8.5193615 0 0 1 0.171875,0.173828 8.5193624,8.5193615 0 0 1 0.167968,0.179688 8.5193624,8.5193615 0 0 1 0.16211,0.183594 8.5193624,8.5193615 0 0 1 0.15625,0.189453 8.5193624,8.5193615 0 0 1 0.15039,0.193359 8.5193624,8.5193615 0 0 1 0.146485,0.197266 8.5193624,8.5193615 0 0 1 0.138672,0.203125 8.5193624,8.5193615 0 0 1 0.134765,0.205078 8.5193624,8.5193615 0 0 1 0.126953,0.208984 8.5193624,8.5193615 0 0 1 0.123047,0.212891 8.5193624,8.5193615 0 0 1 0.115235,0.216797 8.5193624,8.5193615 0 0 1 0.109375,0.220703 8.5193624,8.5193615 0 0 1 0.103515,0.222656 8.5193624,8.5193615 0 0 1 0.0957,0.22461 8.5193624,8.5193615 0 0 1 0.08984,0.228515 8.5193624,8.5193615 0 0 1 0.08398,0.230469 8.5193624,8.5193615 0 0 1 0.07617,0.234375 8.5193624,8.5193615 0 0 1 0.07031,0.234375 8.5193624,8.5193615 0 0 1 0.0625,0.238281 8.5193624,8.5193615 0 0 1 0.05664,0.238281 8.5193624,8.5193615 0 0 1 0.04883,0.240235 8.5193624,8.5193615 0 0 1 0.04297,0.242187 8.5193624,8.5193615 0 0 1 0.03516,0.242188 8.5193624,8.5193615 0 0 1 0.02734,0.24414 8.5193624,8.5193615 0 0 1 0.02148,0.244141 8.5193624,8.5193615 0 0 1 0.01563,0.246094 8.5193624,8.5193615 0 0 1 0.0059,0.24414 8.5193624,8.5193615 0 0 1 0.002,0.128907 8.5193624,8.5193615 0 0 1 -0.0039,0.246093 8.5193624,8.5193615 0 0 1 -0.0098,0.244141 8.5193624,8.5193615 0 0 1 -0.01758,0.246094 8.5193624,8.5193615 0 0 1 -0.02539,0.24414 8.5193624,8.5193615 0 0 1 -0.03125,0.242188 8.5193624,8.5193615 0 0 1 -0.03906,0.242187 8.5193624,8.5193615 0 0 1 -0.04492,0.242188 8.5193624,8.5193615 0 0 1 -0.05273,0.238281 8.5193624,8.5193615 0 0 1 -0.06055,0.238281 8.5193624,8.5193615 0 0 1 -0.06641,0.236328 8.5193624,8.5193615 0 0 1 -0.07227,0.234375 8.5193624,8.5193615 0 0 1 -0.08008,0.232422 8.5193624,8.5193615 0 0 1 -0.08594,0.230469 8.5193624,8.5193615 0 0 1 -0.09375,0.226563 8.5193624,8.5193615 0 0 1 -0.09961,0.224609 8.5193624,8.5193615 0 0 1 -0.105469,0.220703 8.5193624,8.5193615 0 0 1 -0.113281,0.21875 8.5193624,8.5193615 0 0 1 -0.11914,0.214844 8.5193624,8.5193615 0 0 1 -0.123047,0.210937 8.5193624,8.5193615 0 0 1 -0.13086,0.208985 8.5193624,8.5193615 0 0 1 -0.136719,0.203125 8.5193624,8.5193615 0 0 1 -0.142578,0.199218 8.5193624,8.5193615 0 0 1 -0.148437,0.195313 8.5193624,8.5193615 0 0 1 -0.154297,0.191406 8.5193624,8.5193615 0 0 1 -0.158203,0.1875 8.5193624,8.5193615 0 0 1 -0.166016,0.181641 8.5193624,8.5193615 0 0 1 -0.169922,0.177734 8.5193624,8.5193615 0 0 1 -0.173828,0.171875 8.5193624,8.5193615 0 0 1 -0.179687,0.167969 8.5193624,8.5193615 0 0 1 -0.183594,0.162109 8.5193624,8.5193615 0 0 1 -0.189453,0.15625 8.5193624,8.5193615 0 0 1 -0.193359,0.150391 8.5193624,8.5193615 0 0 1 -0.197266,0.146484 8.5193624,8.5193615 0 0 1 -0.203125,0.138672 8.5193624,8.5193615 0 0 1 -0.205078,0.134766 8.5193624,8.5193615 0 0 1 -0.208985,0.126953 8.5193624,8.5193615 0 0 1 -0.21289,0.123047 8.5193624,8.5193615 0 0 1 -0.216797,0.115234 8.5193624,8.5193615 0 0 1 -0.220703,0.109375 8.5193624,8.5193615 0 0 1 -0.222656,0.103516 8.5193624,8.5193615 0 0 1 -0.22461,0.0957 8.5193624,8.5193615 0 0 1 -0.228516,0.08984 8.5193624,8.5193615 0 0 1 -0.230468,0.08398 8.5193624,8.5193615 0 0 1 -0.234375,0.07617 8.5193624,8.5193615 0 0 1 -0.234375,0.07031 8.5193624,8.5193615 0 0 1 -0.238282,0.0625 8.5193624,8.5193615 0 0 1 -0.238281,0.05664 8.5193624,8.5193615 0 0 1 -0.240234,0.04883 8.5193624,8.5193615 0 0 1 -0.242188,0.04297 8.5193624,8.5193615 0 0 1 -0.242187,0.03516 8.5193624,8.5193615 0 0 1 -0.244141,0.02734 8.5193624,8.5193615 0 0 1 -0.24414,0.02148 8.5193624,8.5193615 0 0 1 -0.246094,0.01563 8.5193624,8.5193615 0 0 1 -0.244141,0.0059 8.5193624,8.5193615 0 0 1 -0.128906,0.002 8.5193624,8.5193615 0 0 1 -0.246094,-0.0039 8.5193624,8.5193615 0 0 1 -0.24414,-0.0098 8.5193624,8.5193615 0 0 1 -0.246094,-0.01758 8.5193624,8.5193615 0 0 1 -0.244141,-0.02539 8.5193624,8.5193615 0 0 1 -0.242187,-0.03125 8.5193624,8.5193615 0 0 1 -0.242188,-0.03906 8.5193624,8.5193615 0 0 1 -0.242187,-0.04492 8.5193624,8.5193615 0 0 1 -0.238281,-0.05273 8.5193624,8.5193615 0 0 1 -0.238282,-0.06055 8.5193624,8.5193615 0 0 1 -0.236328,-0.06641 8.5193624,8.5193615 0 0 1 -0.234375,-0.07227 8.5193624,8.5193615 0 0 1 -0.232422,-0.08008 8.5193624,8.5193615 0 0 1 -0.230469,-0.08594 8.5193624,8.5193615 0 0 1 -0.226562,-0.09375 8.5193624,8.5193615 0 0 1 -0.224609,-0.09961 8.5193624,8.5193615 0 0 1 -0.220703,-0.105469 8.5193624,8.5193615 0 0 1 -0.21875,-0.113281 8.5193624,8.5193615 0 0 1 -0.214844,-0.119141 8.5193624,8.5193615 0 0 1 -0.210938,-0.123047 8.5193624,8.5193615 0 0 1 -0.208984,-0.130859 8.5193624,8.5193615 0 0 1 -0.203125,-0.136719 8.5193624,8.5193615 0 0 1 -0.199219,-0.142578 8.5193624,8.5193615 0 0 1 -0.195312,-0.148438 8.5193624,8.5193615 0 0 1 -0.191407,-0.154296 8.5193624,8.5193615 0 0 1 -0.1875,-0.158204 8.5193624,8.5193615 0 0 1 -0.18164,-0.166015 8.5193624,8.5193615 0 0 1 -0.177735,-0.167969 8.5193624,8.5193615 0 0 1 -0.171875,-0.175781 8.5193624,8.5193615 0 0 1 -0.167968,-0.179688 8.5193624,8.5193615 0 0 1 -0.16211,-0.183593 8.5193624,8.5193615 0 0 1 -0.15625,-0.189454 8.5193624,8.5193615 0 0 1 -0.15039,-0.193359 8.5193624,8.5193615 0 0 1 -0.146485,-0.197266 8.5193624,8.5193615 0 0 1 -0.138672,-0.203125 8.5193624,8.5193615 0 0 1 -0.134765,-0.205078 8.5193624,8.5193615 0 0 1 -0.126953,-0.208984 8.5193624,8.5193615 0 0 1 -0.123047,-0.212891 8.5193624,8.5193615 0 0 1 -0.115235,-0.216797 8.5193624,8.5193615 0 0 1 -0.109375,-0.220703 8.5193624,8.5193615 0 0 1 -0.103515,-0.222656 8.5193624,8.5193615 0 0 1 -0.0957,-0.224609 8.5193624,8.5193615 0 0 1 -0.08984,-0.228516 8.5193624,8.5193615 0 0 1 -0.08398,-0.230469 8.5193624,8.5193615 0 0 1 -0.07617,-0.234375 8.5193624,8.5193615 0 0 1 -0.07031,-0.234375 8.5193624,8.5193615 0 0 1 -0.0625,-0.238281 8.5193624,8.5193615 0 0 1 -0.05664,-0.238281 8.5193624,8.5193615 0 0 1 -0.04883,-0.240234 8.5193624,8.5193615 0 0 1 -0.04297,-0.242188 8.5193624,8.5193615 0 0 1 -0.03516,-0.242187 8.5193624,8.5193615 0 0 1 -0.02734,-0.244141 8.5193624,8.5193615 0 0 1 -0.02149,-0.244141 8.5193624,8.5193615 0 0 1 -0.01563,-0.246093 8.5193624,8.5193615 0 0 1 -0.0059,-0.244141 8.5193624,8.5193615 0 0 1 -0.002,-0.128906 8.5193624,8.5193615 0 0 1 0.0039,-0.246094 8.5193624,8.5193615 0 0 1 0.0098,-0.244141 8.5193624,8.5193615 0 0 1 0.01758,-0.24414 8.5193624,8.5193615 0 0 1 0.02539,-0.246094 8.5193624,8.5193615 0 0 1 0.03125,-0.242188 8.5193624,8.5193615 0 0 1 0.03906,-0.242187 8.5193624,8.5193615 0 0 1 0.04492,-0.242188 8.5193624,8.5193615 0 0 1 0.05273,-0.238281 8.5193624,8.5193615 0 0 1 0.06055,-0.238281 8.5193624,8.5193615 0 0 1 0.06641,-0.236328 8.5193624,8.5193615 0 0 1 0.07227,-0.234375 8.5193624,8.5193615 0 0 1 0.08008,-0.232422 8.5193624,8.5193615 0 0 1 0.08594,-0.230469 8.5193624,8.5193615 0 0 1 0.09375,-0.226562 8.5193624,8.5193615 0 0 1 0.09961,-0.22461 8.5193624,8.5193615 0 0 1 0.105469,-0.220703 8.5193624,8.5193615 0 0 1 0.113281,-0.21875 8.5193624,8.5193615 0 0 1 0.11914,-0.214844 8.5193624,8.5193615 0 0 1 0.123047,-0.210937 8.5193624,8.5193615 0 0 1 0.13086,-0.207031 8.5193624,8.5193615 0 0 1 0.136719,-0.205078 8.5193624,8.5193615 0 0 1 0.142578,-0.199219 8.5193624,8.5193615 0 0 1 0.148437,-0.195313 8.5193624,8.5193615 0 0 1 0.154297,-0.191406 8.5193624,8.5193615 0 0 1 0.158203,-0.1875 8.5193624,8.5193615 0 0 1 0.166016,-0.181641 8.5193624,8.5193615 0 0 1 0.167969,-0.177734 8.5193624,8.5193615 0 0 1 0.175781,-0.171875 8.5193624,8.5193615 0 0 1 0.179687,-0.167969 8.5193624,8.5193615 0 0 1 0.183594,-0.162109 8.5193624,8.5193615 0 0 1 0.189453,-0.15625 8.5193624,8.5193615 0 0 1 0.193359,-0.150391 8.5193624,8.5193615 0 0 1 0.197266,-0.146484 8.5193624,8.5193615 0 0 1 0.203125,-0.138672 8.5193624,8.5193615 0 0 1 0.205078,-0.134765 8.5193624,8.5193615 0 0 1 0.208985,-0.126954 8.5193624,8.5193615 0 0 1 0.21289,-0.123046 8.5193624,8.5193615 0 0 1 0.216797,-0.115235 8.5193624,8.5193615 0 0 1 0.220703,-0.109375 8.5193624,8.5193615 0 0 1 0.222656,-0.103515 8.5193624,8.5193615 0 0 1 0.22461,-0.0957 8.5193624,8.5193615 0 0 1 0.228516,-0.08984 8.5193624,8.5193615 0 0 1 0.230468,-0.08399 8.5193624,8.5193615 0 0 1 0.234375,-0.07617 8.5193624,8.5193615 0 0 1 0.234375,-0.07031 8.5193624,8.5193615 0 0 1 0.238282,-0.0625 8.5193624,8.5193615 0 0 1 0.238281,-0.05664 8.5193624,8.5193615 0 0 1 0.240234,-0.04883 8.5193624,8.5193615 0 0 1 0.242188,-0.04297 8.5193624,8.5193615 0 0 1 0.242187,-0.03516 8.5193624,8.5193615 0 0 1 0.244141,-0.02734 8.5193624,8.5193615 0 0 1 0.24414,-0.02148 8.5193624,8.5193615 0 0 1 0.246094,-0.01563 8.5193624,8.5193615 0 0 1 0.244141,-0.0059 8.5193624,8.5193615 0 0 1 0.128906,-0.002 z"
         style="fill:#45d5ab;fill-opacity:1;stroke:#16c995;stroke-width:1.035;stroke-miterlimit:4;stroke-dasharray:none"
         id="path2095" />
      <path
         sodipodi:nodetypes="caacc"
         id="path2106"
         d="m 36.638871,51.450329 c 0,0 11.562863,4.547814 12.005078,9.666426 0.08238,0.95357 -0.940531,2.079969 -1.894492,2.157692 -5.15381,0.4199 -11.987041,-9.846498 -11.987041,-9.846498 z"
         style="fill:#45d5ab;fill-opacity:1;stroke:#16c995;stroke-width:0.7;stroke-linecap:round;stroke-linejoin:miter;stroke-miterlimit:4;stroke-dasharray:none;stroke-opacity:1" />
      <circle
         r="8.4115868"
         cy="44.657772"
         cx="26.873213"
         id="path2098"
         style="fill:#fbfdfc;fill-opacity:0.544355;stroke:none;stroke-width:1.04357;stroke-miterlimit:4;stroke-dasharray:none" />
    </g>
  </g>
</svg>
