<?xml version="1.0" encoding="UTF-8" standalone="no"?>
<svg
   xmlns:dc="http://purl.org/dc/elements/1.1/"
   xmlns:cc="http://creativecommons.org/ns#"
   xmlns:rdf="http://www.w3.org/1999/02/22-rdf-syntax-ns#"
   xmlns:svg="http://www.w3.org/2000/svg"
   xmlns="http://www.w3.org/2000/svg"
   xmlns:sodipodi="http://sodipodi.sourceforge.net/DTD/sodipodi-0.dtd"
   xmlns:inkscape="http://www.inkscape.org/namespaces/inkscape"
   width="100"
   height="80"
   version="1.1"
   id="svg3562"
   sodipodi:docname="05.svg"
   inkscape:version="1.0 (4035a4f, 2020-05-01)">
  <metadata
     id="metadata3566">
    <rdf:RDF>
      <cc:Work
         rdf:about="">
        <dc:format>image/svg+xml</dc:format>
        <dc:type
           rdf:resource="http://purl.org/dc/dcmitype/StillImage" />
      </cc:Work>
    </rdf:RDF>
  </metadata>
  <sodipodi:namedview
     inkscape:document-rotation="0"
     pagecolor="#ffffff"
     bordercolor="#666666"
     borderopacity="1"
     objecttolerance="10"
     gridtolerance="10"
     guidetolerance="10"
     inkscape:pageopacity="0"
     inkscape:pageshadow="2"
     inkscape:window-width="1414"
     inkscape:window-height="778"
     id="namedview3564"
     showgrid="false"
     inkscape:zoom="3.2707146"
     inkscape:cx="88.204472"
     inkscape:cy="68.020128"
     inkscape:window-x="0"
     inkscape:window-y="23"
     inkscape:window-maximized="0"
     inkscape:current-layer="svg3562" />
  <g
     fill="#ffbd5c"
     fill-rule="evenodd"
     id="g3557">
    <path
       d="M36.313 74.93c17.87 8.716 53.216 3.095 61.932-14.775S81.107 22.098 63.237 13.382 21.223-8.355 12.507 9.515s5.936 56.698 23.806 65.414z"
       opacity=".1"
       id="path3541" />
  </g>
  <defs
     id="defs3560">
    <path
       id="B"
       d="M21.3 74.5v-1.04c-.83-.367-1.607-.86-2.3-1.46v2.5c0 2.128 4.865 4.5 11.85 4.5.4 0 .774-.007 1.15-.022-6.363-.243-10.7-2.468-10.7-4.477z" />
  </defs>
  <g
     id="g6191"
     transform="matrix(0.5836527,0,0,0.5836527,54.798553,27.076334)"
     style="stroke-width:2.37127319;stroke-miterlimit:4;stroke-dasharray:none">
    <path
       sodipodi:nodetypes="cc"
       id="path6179"
       d="m -31.523504,72.84645 -0.148676,9.143518"
       style="fill:none;stroke:#ffd088;stroke-width:2.37127319;stroke-linecap:round;stroke-linejoin:miter;stroke-miterlimit:4;stroke-dasharray:none;stroke-opacity:0.278431" />
    <path
       sodipodi:nodetypes="cccaacccaccccaaaacc"
       id="path4195"
       d="m -68.68696,83.244851 h 35.57159 l -0.24865,-12.013902 c 0,0 9.370149,1.861941 13.44773,0 1.264651,-0.577476 2.245664,-1.849231 2.73157,-3.151812 1.640133,-4.396746 0,-14.078093 0,-14.078093 l 11.136402,-4.202416 -8.404831,-14.288214 c 0,0 1.30548,-6.855553 1.050603,-10.295919 -0.272348,-3.6762 -1.24081,-7.344773 -2.73157,-10.71616 -5.618509,-12.0070955 -18.969242,-21.3534397 -30.887754,-22.693046 -2.871055,-0.2181457 -5.775965,0.1500989 -8.61496,0.6303624 -13.857715,2.0216255 -21.85716,14.0360712 -24.37401,25.8448576 -0.938166,4.490003 -1.725535,9.0711 -1.68096,13.657852 0.03369,3.466652 0.368478,7.009034 1.47084,10.295919 1.196229,3.566764 3.363927,6.753807 5.46314,9.875677 1.55645,2.314694 3.71436,4.187188 5.25302,6.513745 0.656811,0.993142 1.68097,3.151812 1.68097,3.151812 z"
       style="fill:#ffffff;fill-opacity:0.0980392;stroke:#ffbd5c;stroke-width:2.37127319;stroke-linecap:butt;stroke-linejoin:miter;stroke-miterlimit:4;stroke-dasharray:none;stroke-opacity:1" />
    <circle
       style="fill:#ffbd5c;fill-opacity:1;stroke:#ffbd5c;stroke-width:2.37127319;stroke-linecap:round;stroke-linejoin:round;stroke-miterlimit:4;stroke-dasharray:none;stroke-opacity:1"
       id="circle4199"
       cx="-57.769165"
       cy="4.6433048"
       r="4.4326358" />
    <circle
       style="fill:#ffbd5c;fill-opacity:1;stroke:#ffbd5c;stroke-width:2.37127319;stroke-linecap:round;stroke-linejoin:round;stroke-miterlimit:4;stroke-dasharray:none;stroke-opacity:1"
       id="circle4203"
       cx="-39.573074"
       cy="11.873307"
       r="4.4326358" />
    <circle
       r="4.4326358"
       cy="27.159689"
       cx="-51.56353"
       id="circle4209"
       style="fill:#ffbd5c;fill-opacity:1;stroke:#ffbd5c;stroke-width:2.37127319;stroke-linecap:round;stroke-linejoin:round;stroke-miterlimit:4;stroke-dasharray:none;stroke-opacity:1" />
    <path
       style="fill:none;stroke:#ffbd5c;stroke-width:2.37127319;stroke-linecap:round;stroke-linejoin:miter;stroke-miterlimit:4;stroke-dasharray:none;stroke-opacity:1"
       d="m -52.633894,27.165109 c 0,0 -11.596372,1.012516 -16.805468,3.357328 -4.640458,2.088846 -8.960105,5.271263 -12.165099,9.224128 -2.767676,3.413501 -5.211644,7.425279 -5.621961,11.924836"
       id="path6165"
       sodipodi:nodetypes="caac" />
    <path
       sodipodi:nodetypes="caac"
       id="path6167"
       d="m -58.537852,5.1765327 c 0,0 -10.228366,1.760091 -14.670748,4.246795 -5.136481,2.8752383 -10.277976,6.7020573 -13.054565,11.8925283 -3.464162,6.475798 -3.460273,17.739943 -3.302715,21.783468"
       style="fill:none;stroke:#ffbd5c;stroke-width:2.37127319;stroke-linecap:round;stroke-linejoin:miter;stroke-miterlimit:4;stroke-dasharray:none;stroke-opacity:1" />
    <path
       style="fill:none;stroke:#ffbd5c;stroke-width:2.37127319;stroke-linecap:round;stroke-linejoin:miter;stroke-miterlimit:4;stroke-dasharray:none;stroke-opacity:1"
       d="m -40.71817,12.028415 c 0,0 -9.961245,1.800607 -14.823559,3.177119 -6.267517,1.774323 -12.061376,2.842326 -18.418764,6.528328 -5.521025,3.201081 -11.154905,7.910316 -13.057673,14.001959 -4.867291,15.582461 1.207105,23.612666 0.03355,34.586175 -0.68993,6.451301 -9.589513,21.180653 -9.589513,21.180653"
       id="path6171"
       sodipodi:nodetypes="casssc" />
    <path
       sodipodi:nodetypes="caaaasc"
       id="path6173"
       d="m -61.648532,-2.3222457 c 0,0 -7.014266,5.1295468 -9.452775,8.6307945 -2.704324,3.8829092 -4.24849,8.5481362 -5.342872,13.1516872 -1.176179,4.947631 -1.785171,10.151192 -1.232971,15.206637 0.404657,3.70468 1.6026,7.361879 3.287922,10.685746 2.130261,4.201396 5.931288,7.901633 8.439704,11.334861 4.459546,6.103705 1.377026,22.713805 1.377026,22.713805"
       style="fill:none;stroke:#ffbe5a;stroke-width:3.05661226;stroke-linecap:round;stroke-linejoin:miter;stroke-miterlimit:4;stroke-dasharray:none;stroke-opacity:0.2" />
    <path
       sodipodi:nodetypes="ccsccsc"
       id="path6175"
       d="m -33.10911,-5.9202327 c 11.479312,4.2777898 21.284952,16.4982657 22.884148,21.9266057 0.7991724,2.712724 0.7797994,13.194722 1.0632614,18.482124 0.36686,6.843024 9.82253026,18.135035 9.82253026,18.135035 L -12.432154,57.558737 c 0,0 -0.365485,8.738722 -0.71723,13.694935 -0.306076,4.312714 -18.37412,1.592778 -18.37412,1.592778"
       style="fill:none;stroke:#ffd088;stroke-width:5.18052;stroke-linecap:round;stroke-linejoin:miter;stroke-miterlimit:4;stroke-dasharray:none;stroke-opacity:0.278431" />
  </g>
</svg>
