<?xml version="1.0" encoding="UTF-8" standalone="no"?>
<svg
   xmlns:dc="http://purl.org/dc/elements/1.1/"
   xmlns:cc="http://creativecommons.org/ns#"
   xmlns:rdf="http://www.w3.org/1999/02/22-rdf-syntax-ns#"
   xmlns:svg="http://www.w3.org/2000/svg"
   xmlns="http://www.w3.org/2000/svg"
   xmlns:sodipodi="http://sodipodi.sourceforge.net/DTD/sodipodi-0.dtd"
   xmlns:inkscape="http://www.inkscape.org/namespaces/inkscape"
   inkscape:version="1.0 (4035a4f, 2020-05-01)"
   sodipodi:docname="02.svg"
   id="svg2133"
   version="1.1"
   fill-rule="evenodd"
   fill="#f74f78"
   height="79"
   width="102">
  <metadata
     id="metadata2139">
    <rdf:RDF>
      <cc:Work
         rdf:about="">
        <dc:format>image/svg+xml</dc:format>
        <dc:type
           rdf:resource="http://purl.org/dc/dcmitype/StillImage" />
      </cc:Work>
    </rdf:RDF>
  </metadata>
  <defs
     id="defs2137" />
  <sodipodi:namedview
     inkscape:current-layer="g2836"
     inkscape:window-maximized="0"
     inkscape:window-y="42"
     inkscape:window-x="42"
     inkscape:cy="42.002029"
     inkscape:cx="118.48407"
     inkscape:zoom="2.1046855"
     showgrid="false"
     id="namedview2135"
     inkscape:window-height="793"
     inkscape:window-width="1386"
     inkscape:pageshadow="2"
     inkscape:pageopacity="0"
     guidetolerance="10"
     gridtolerance="10"
     objecttolerance="10"
     borderopacity="1"
     bordercolor="#666666"
     pagecolor="#ffffff" />
  <path
     style="fill:#f53d7a;fill-opacity:0.09803922"
     id="path2125"
     fill-opacity=".1"
     d="M37.86 74.797c17.87 8.716 53.216 3.095 61.932-14.775S82.654 21.966 64.784 13.25 22.77-8.487 14.054 9.383 20 66.08 37.86 74.797z" />
  <g
     style="fill:#f53d7a;fill-opacity:0.0980392;stroke:#f74f78;stroke-opacity:1"
     transform="matrix(1.3794535,0,0,1.3794535,84.776322,-100.04869)"
     id="g2814">
    <g
       transform="matrix(0.61472961,0,0,0.61472961,-22.998716,35.929497)"
       id="g2836">
      <path
         style="fill:#ffffff;fill-opacity:0;stroke:#f74f78;stroke-width:1px;stroke-linecap:butt;stroke-linejoin:miter;stroke-opacity:1"
         d="m 112.70269,127.52915 c 0,0 -4.44335,1.92162 -6.75371,2.62644 -2.45234,0.74814 -4.96564,1.32831 -7.504137,1.68843 -2.046928,0.29039 -4.123618,0.39858 -6.190909,0.37521 -1.505932,-0.017 -3.004861,-0.21627 -4.502479,-0.37521 -1.943723,-0.20628 -3.889449,-0.41851 -5.815702,-0.75041 -2.332863,-0.40197 -4.696253,-0.75017 -6.941323,-1.50083 -1.6983,-0.56784 -4.87768,-2.25124 -4.87768,-2.25124 0,0 -0.25775,4.87789 -0.18761,7.31653 0.0866,3.01081 0.32931,6.02248 0.75042,9.00496 0.4458,3.15732 0.93415,6.3338 1.87603,9.38016 0.9435,3.05163 2.12754,6.06716 3.75206,8.81736 1.49515,2.53118 3.332588,4.89216 5.4405,6.94132 1.282428,1.24668 2.717032,2.38568 4.314875,3.18926 1.34314,0.67548 4.314876,1.31322 4.314876,1.31322 0,0 3.328929,-0.19593 4.877686,-0.75041 1.847772,-0.66154 3.541555,-1.76467 5.065293,-3.00166 1.58068,-1.28321 2.92985,-2.85585 4.12727,-4.50248 1.26819,-1.74394 2.23508,-3.69439 3.18925,-5.62809 0.99195,-2.01026 1.90386,-4.0689 2.62645,-6.19091 0.95828,-2.81417 1.78976,-5.69294 2.25124,-8.62976 0.51532,-3.27938 0.55624,-6.62335 0.56281,-9.94297 0.005,-2.37959 -0.37521,-7.12892 -0.37521,-7.12892 z"
         id="path2768"
         sodipodi:nodetypes="caaaaaacaaaaaacaaaaaaac"
         transform="translate(-129.11183,-33.275414)" />
      <path
         style="fill:#ffffff;fill-opacity:1;stroke:#f74f78;stroke-width:0.7;stroke-linecap:butt;stroke-linejoin:miter;stroke-miterlimit:4;stroke-dasharray:none;stroke-opacity:1"
         d="m 77.7737,144.67802 c 0,0 1.784307,-1.69101 2.841423,-2.295 0.540491,-0.30882 1.15257,-0.47605 1.748571,-0.65572 0.465334,-0.14027 0.936477,-0.28628 1.420713,-0.32785 0.654318,-0.0562 1.33066,-0.0525 1.967142,0.10928 0.742258,0.18869 1.358132,0.71786 2.076427,0.98357 0.38955,0.14411 1.202143,0.32786 1.202143,0.32786 0,0 -0.915792,-1.69469 -1.639285,-2.295 -0.865454,-0.71809 -1.956655,-1.20322 -3.059998,-1.42071 -0.78711,-0.15516 -1.633259,-0.11238 -2.404285,0.10928 -0.924966,0.26592 -1.827177,0.74608 -2.51357,1.42072 -0.512413,0.50363 -0.820793,1.19287 -1.092856,1.85785 -0.284373,0.69507 -0.546425,2.18572 -0.546425,2.18572 z"
         id="path2770"
         sodipodi:nodetypes="caaaaacaaaaac"
         transform="translate(-129.11183,-33.275414)" />
      <path
         style="fill:#ffffff;fill-opacity:1;stroke:#f74f78;stroke-width:0.7;stroke-linecap:butt;stroke-linejoin:miter;stroke-miterlimit:4;stroke-dasharray:none;stroke-opacity:1"
         d="m 94.27583,142.82016 c 0,0 1.91992,-0.94631 2.950713,-1.20214 0.710645,-0.17638 1.454382,-0.25434 2.185713,-0.21857 0.742114,0.0363 1.497344,0.15751 2.185714,0.43714 0.68339,0.2776 1.26545,0.76265 1.85785,1.20214 0.49823,0.36962 1.42072,1.20214 1.42072,1.20214 l 0.43714,0.10929 -0.87428,-2.51357 c 0,0 -0.9449,-1.10828 -1.53,-1.53 -0.66082,-0.47629 -1.38889,-0.92376 -2.18572,-1.09286 -0.784776,-0.16654 -1.621709,-0.0673 -2.404281,0.10929 -0.732568,0.16534 -1.441176,0.47373 -2.076427,0.87428 -0.371052,0.23397 -0.983571,0.87429 -0.983571,0.87429 z"
         id="path2772"
         sodipodi:nodetypes="caaaacccaaaacc"
         transform="translate(-129.11183,-33.275414)" />
      <path
         sodipodi:nodetypes="ccaaaaaacccaaaaaacc"
         style="fill:#ffffff;fill-opacity:1;stroke:#f74f78;stroke-width:0.7;stroke-linecap:butt;stroke-linejoin:miter;stroke-miterlimit:4;stroke-dasharray:none;stroke-opacity:1"
         d="m 101.27011,155.60658 -1.420712,2.84143 c 0,0 -1.324207,1.87038 -2.076427,2.73214 -0.474296,0.54336 -0.960021,1.08804 -1.529999,1.53 -0.735651,0.57041 -1.521292,1.12596 -2.404285,1.42071 -0.938704,0.31335 -1.965309,0.41916 -2.950712,0.32786 -0.872066,-0.0808 -1.736635,-0.36077 -2.51357,-0.765 -0.943834,-0.49106 -1.759151,-1.21693 -2.51357,-1.96714 -0.790693,-0.78629 -2.076428,-2.62286 -2.076428,-2.62286 l -1.639284,-2.95071 -0.218572,-0.87429 c 0,0 1.301769,0.81768 1.967142,1.20215 0.790432,0.45672 1.553881,0.97947 2.404284,1.31142 0.8395,0.32771 1.737924,0.4853 2.622856,0.65572 0.79425,0.15296 1.595502,0.3178 2.404284,0.32786 0.989547,0.0123 1.984129,-0.11556 2.950713,-0.32786 0.900122,-0.1977 1.774794,-0.5136 2.622856,-0.87429 0.794705,-0.33799 2.294998,-1.20214 2.294998,-1.20214 z"
         id="path2774"
         transform="translate(-129.11183,-33.275414)" />
      <path
         style="fill:#f74f78;fill-opacity:1;stroke:#f74f78;stroke-width:1px;stroke-linecap:butt;stroke-linejoin:miter;stroke-opacity:1"
         d="m -13.11637,104.57843 c 0,0 4.265056,0.51806 6.40781,0.51263 2.0150318,-0.005 4.023484,-0.26574 6.02334,-0.51263 1.58917618,-0.19619 3.1783807,-0.42288 4.74178,-0.76894 1.6901214,-0.37411 3.3532225,-0.87038 4.99809,-1.40971 1.734109,-0.56859 5.12625,-1.92235 5.12625,-1.92235 0,0 0.290001,5.89932 0.12815,8.84278 -0.113456,2.06334 -0.463653,4.10772 -0.76893,6.1515 -0.294655,1.97267 -0.560162,3.95561 -1.02525,5.89518 -0.406458,1.69507 -0.953569,3.35584 -1.53788,4.9981 -0.571715,1.60686 -1.20389,3.19494 -1.92234,4.74177 -0.7727395,1.66372 -1.5558239,3.33681 -2.56312,4.86993 -1.0843759,1.65043 -2.3240513,3.21334 -3.71653,4.61363 -1.0490996,1.05498 -2.19150923,2.04229 -3.46022,2.81944 -1.3537177,0.82923 -2.8142286,1.54941 -4.35731,1.92233 -1.4142347,0.34178 -2.91987,0.48135 -4.35731,0.25632 -1.402949,-0.21963 -2.737124,-0.83823 -3.97284,-1.53788 -1.695389,-0.95991 -3.262933,-2.18431 -4.61363,-3.58837 -1.67664,-1.74288 -4.22915,-5.89518 -4.22915,-5.89518 0,0 2.172577,-3.26285 3.07575,-4.9981 0.795055,-1.52752 1.445599,-3.12946 2.0505,-4.74177 0.787768,-2.09972 1.493055,-4.23556 2.0505,-6.40781 0.443568,-1.72849 0.882723,-4.46017 1.02524,-5.2544 0.508263,-2.8325 0.8971,-8.58647 0.8971,-8.58647 z"
         id="path2794"
         sodipodi:nodetypes="caaaacaaaaaaaaaaaacaaasc" />
      <path
         style="fill:#ffffff;fill-opacity:1;stroke:#f74f78;stroke-width:0.7;stroke-linecap:butt;stroke-linejoin:miter;stroke-miterlimit:4;stroke-dasharray:none;stroke-opacity:1"
         d="m -14.812782,118.41975 c 0.341749,0.32721 0.939796,-0.0927 1.36732,-0.27536 0.607766,-0.25972 1.13725,-0.68969 1.626384,-1.13419 0.466806,-0.42421 1.22554,-1.44181 1.22554,-1.44181 l 0.50463,-1.15345 0.2883601,-1.29762 c 0,0 -0.8430111,0.79533 -1.2976201,1.15344 -0.528888,0.41663 -1.053572,0.85704 -1.65809,1.15345 -0.495829,0.24312 -1.117707,0.39757 -1.580735,0.49583 0,0 -0.566627,1.8631 -0.475789,2.49971 z"
         id="path2796"
         sodipodi:nodetypes="caacccaacc" />
      <path
         style="fill:#ffffff;fill-opacity:1;stroke:#f74f78;stroke-width:0.7;stroke-linecap:butt;stroke-linejoin:miter;stroke-miterlimit:4;stroke-dasharray:none;stroke-opacity:1"
         d="m -4.56244,113.0865 0.47821,1.84453 c 0,0 0.610289,1.06037 1.02475,1.50296 0.4546035,0.48546 1.0043881,0.88187 1.57127,1.22969 0.3212877,0.19713 0.66604283,0.36236 1.02474,0.47822 0.46324465507,0.14963 0.94866069,0.24482 1.43464,0.27326 0.6381526,0.0374 1.2935727,0.0219 1.91286,-0.13663 0.582431,-0.14905 1.1348375,-0.42488 1.63959,-0.75148 0.4064729,-0.26301 0.7756727,-0.59084 1.09306,-0.95643 0.4099249,-0.47219 1.02474,-1.57127 1.02474,-1.57127 l 0.0683,-0.27326 c 0,0 -0.8841839,0.55726 -1.36632,0.75147 -0.5687508,0.22909 -1.178033,0.34356 -1.77622,0.47822 -0.496768,0.11183 -0.9958177,0.22753 -1.50296,0.27326 -0.4762811,0.043 -0.9630495,0.0793 -1.43464,0 -0.6178642,-0.10391 -1.20132207,-0.36575 -1.77622,-0.61484 -0.4486376,-0.19439 -0.888926,-0.41538 -1.29801,-0.68317 -0.3659944,-0.23958 -0.6941416,-0.53335 -1.02475,-0.81979 -0.3774571,-0.32703 -1.09304,-1.02474 -1.09304,-1.02474 z"
         id="path2798"
         sodipodi:nodetypes="ccaaaaaaaccaaaaaaac" />
      <path
         style="fill:#ffffff;fill-opacity:1;stroke:#f74f78;stroke-width:0.7;stroke-linecap:butt;stroke-linejoin:miter;stroke-miterlimit:4;stroke-dasharray:none;stroke-opacity:1"
         d="m -14.94651,134.74275 c 0,0 0.92269,-1.69366 1.50295,-2.45939 0.525521,-0.6935 1.109805,-1.3534 1.77623,-1.91286 0.706308,-0.59294 1.457277,-1.18451 2.32275,-1.50295 0.8191129,-0.30138 1.726133,-0.41281 2.59602,-0.34158 0.7826026,0.0641 1.5491869,0.3379 2.25443,0.68316 0.6015288,0.29449 1.1469114,0.70769 1.63959,1.16137 0.5469362,0.50364 0.9802782,1.1194 1.43465,1.70791 0.4092968,0.53013 1.16137,1.63959 1.16137,1.63959 l 0.61485,1.29801 H 0.08306 c 0,0 -1.7424817,-0.98375 -2.66433,-1.36633 -0.7516073,-0.31192 -1.5287096,-0.57341 -2.32275,-0.75148 -0.6945378,-0.15576 -1.4064727,-0.24791 -2.11781,-0.27326 -0.7978171,-0.0284 -1.6050312,-0.003 -2.39107,0.13663 -0.773139,0.13722 -1.520466,0.40411 -2.25443,0.68316 -0.609528,0.23174 -1.168318,0.58385 -1.77623,0.8198 -0.490111,0.19023 -1.50295,0.47822 -1.50295,0.47822 z"
         id="path2800"
         sodipodi:nodetypes="caaaaaaacccaaaaaac" />
      <path
         id="path2855"
         d="m -14.066124,116.2654 -1.03397,0.21184 -0.487443,2.03367 1.240765,-0.38131 z"
         style="fill:#ffffff;fill-opacity:1;stroke:#ffffff;stroke-width:0.0576906;stroke-linecap:butt;stroke-linejoin:miter;stroke-miterlimit:4;stroke-dasharray:none;stroke-opacity:1" />
    </g>
  </g>
</svg>
