<?xml version="1.0" encoding="UTF-8" standalone="no"?>
<svg
   xmlns:dc="http://purl.org/dc/elements/1.1/"
   xmlns:cc="http://creativecommons.org/ns#"
   xmlns:rdf="http://www.w3.org/1999/02/22-rdf-syntax-ns#"
   xmlns:svg="http://www.w3.org/2000/svg"
   xmlns="http://www.w3.org/2000/svg"
   xmlns:sodipodi="http://sodipodi.sourceforge.net/DTD/sodipodi-0.dtd"
   xmlns:inkscape="http://www.inkscape.org/namespaces/inkscape"
   inkscape:version="1.0 (4035a4f, 2020-05-01)"
   sodipodi:docname="psych.svg"
   viewBox="0 0 613.53253 395.10214"
   height="395.10214"
   width="613.53253"
   xml:space="preserve"
   id="svg2069"
   version="1.1"><metadata
     id="metadata2075"><rdf:RDF><cc:Work
         rdf:about=""><dc:format>image/svg+xml</dc:format><dc:type
           rdf:resource="http://purl.org/dc/dcmitype/StillImage" /><dc:title></dc:title></cc:Work></rdf:RDF></metadata><defs
     id="defs2073"><clipPath
       id="clipPath2089"
       clipPathUnits="userSpaceOnUse"><path
         id="path2087"
         d="M 142.828,43.598 H 315.461 V 250.461 H 142.828 Z" /></clipPath><clipPath
       id="clipPath2099"
       clipPathUnits="userSpaceOnUse"><path
         id="path2097"
         d="M 0,0 H 461 V 297 H 0 Z" /></clipPath><clipPath
       id="clipPath2109"
       clipPathUnits="userSpaceOnUse"><path
         id="path2107"
         d="M 0,16.5 H 461 V 297 H 0 Z" /></clipPath><clipPath
       id="clipPath2119"
       clipPathUnits="userSpaceOnUse"><path
         id="path2117"
         d="M 0,0 H 461 V 297 H 0 Z" /></clipPath><clipPath
       id="clipPath2183"
       clipPathUnits="userSpaceOnUse"><path
         id="path2181"
         d="M 142.918,44.75 H 315.016 V 250.371 H 142.918 Z" /></clipPath><clipPath
       id="clipPath2193"
       clipPathUnits="userSpaceOnUse"><path
         id="path2191"
         d="M 0,0 H 461 V 297 H 0 Z" /></clipPath><clipPath
       id="clipPath2203"
       clipPathUnits="userSpaceOnUse"><path
         id="path2201"
         d="M 0,16.5 H 461 V 297 H 0 Z" /></clipPath><clipPath
       id="clipPath2213"
       clipPathUnits="userSpaceOnUse"><path
         id="path2211"
         d="M 0,0 H 461 V 297 H 0 Z" /></clipPath><clipPath
       id="clipPath2227"
       clipPathUnits="userSpaceOnUse"><path
         id="path2225"
         d="M 142.828,43.598 H 315.461 V 250.461 H 142.828 Z" /></clipPath><clipPath
       id="clipPath2237"
       clipPathUnits="userSpaceOnUse"><path
         id="path2235"
         d="M 0,0 H 461 V 297 H 0 Z" /></clipPath><clipPath
       id="clipPath2247"
       clipPathUnits="userSpaceOnUse"><path
         id="path2245"
         d="M 0,16.5 H 461 V 297 H 0 Z" /></clipPath><clipPath
       id="clipPath2257"
       clipPathUnits="userSpaceOnUse"><path
         id="path2255"
         d="M 0,0 H 461 V 297 H 0 Z" /></clipPath></defs><sodipodi:namedview
     inkscape:current-layer="g2077"
     inkscape:window-maximized="0"
     inkscape:window-y="23"
     inkscape:window-x="0"
     inkscape:cy="197.55107"
     inkscape:cx="306.76627"
     inkscape:zoom="1.5869314"
     showgrid="false"
     id="namedview2071"
     inkscape:window-height="480"
     inkscape:window-width="698"
     inkscape:pageshadow="2"
     inkscape:pageopacity="0"
     guidetolerance="10"
     gridtolerance="10"
     objecttolerance="10"
     borderopacity="1"
     bordercolor="#666666"
     pagecolor="#ffffff" /><g
     transform="matrix(1.3333333,0,0,1.3333333,0,7.8775533e-6)"
     inkscape:label="psych"
     inkscape:groupmode="layer"
     id="g2077"><g
       id="g2079"><path
         id="path2081"
         style="fill:#ffffff;fill-opacity:1;fill-rule:nonzero;stroke:none"
         d="M 0,0 H 460.148 V 296.328 H 0 Z" /></g><g
       id="g2083"><g
         clip-path="url(#clipPath2089)"
         id="g2085"><g
           id="g2091"><g
             id="g2093"><g
               clip-path="url(#clipPath2099)"
               id="g2095"><g
                 id="g2101" /><g
                 id="g2103"><g
                   clip-path="url(#clipPath2109)"
                   id="g2105"><g
                     id="g2111"><g
                       id="g2113"><g
                         clip-path="url(#clipPath2119)"
                         id="g2115"><g
                           id="g2121"><path
                             id="path2123"
                             style="fill:#0f1f47;fill-opacity:1;fill-rule:nonzero;stroke:none"
                             d="m 210.285,101.496 c -5.734,0 -10.383,0.891 -10.383,1.992 0,1.102 4.649,1.992 10.383,1.992 5.731,0 10.379,-0.89 10.379,-1.992 0,-1.101 -4.648,-1.992 -10.379,-1.992" /><path
                             id="path2125"
                             style="fill:#0f1f47;fill-opacity:1;fill-rule:nonzero;stroke:none"
                             d="m 224.578,89.059 -5.996,4.211 -0.051,0.429 1.426,0.641 c 0.281,0.14 0.285,0.367 0.141,0.504 l -3.766,3.176 -0.355,-0.032 -2.668,-3.929 c -0.184,-0.258 -0.118,-0.508 0.203,-0.563 l 1.789,-0.293 V 92.75 l -4.641,-6.555 h -0.762 l -4.64,6.555 v 0.453 l 1.793,0.293 c 0.32,0.055 0.387,0.305 0.203,0.563 l -2.668,3.929 -0.356,0.032 -3.515,-3.176 c -0.145,-0.137 -0.141,-0.364 0.137,-0.504 l 1.425,-0.641 -0.05,-0.429 -6.239,-4.211 -0.508,0.199 3.665,11.199 c 1.859,-0.836 6.132,-1.426 11.136,-1.449 5.004,0.023 9.278,0.613 11.137,1.449 l 3.664,-11.199 -0.504,-0.199" /><path
                             id="path2127"
                             style="fill:#0f1f47;fill-opacity:1;fill-rule:nonzero;stroke:none"
                             d="m 228.902,176.59 c -5.738,0 -10.382,0.89 -10.382,1.988 0,1.102 4.644,1.992 10.382,1.992 5.731,0 10.379,-0.89 10.379,-1.992 0,-1.098 -4.648,-1.988 -10.379,-1.988" /><path
                             id="path2129"
                             style="fill:#0f1f47;fill-opacity:1;fill-rule:nonzero;stroke:none"
                             d="m 243.191,164.152 -5.992,4.211 -0.047,0.426 1.422,0.641 c 0.281,0.14 0.285,0.367 0.141,0.504 l -3.766,3.179 -0.355,-0.031 -2.668,-3.934 c -0.184,-0.253 -0.117,-0.507 0.207,-0.562 l 1.789,-0.289 v -0.453 l -4.641,-6.555 h -0.761 l -4.641,6.555 v 0.453 l 1.789,0.289 c 0.32,0.055 0.387,0.309 0.203,0.562 l -2.668,3.934 -0.355,0.031 -3.516,-3.179 c -0.144,-0.137 -0.141,-0.364 0.141,-0.504 l 1.422,-0.641 -0.051,-0.426 -6.242,-4.211 -0.504,0.196 3.664,11.199 c 1.859,-0.836 6.136,-1.422 11.136,-1.445 5.004,0.023 9.278,0.609 11.137,1.445 l 3.664,-11.199 -0.508,-0.196" /><path
                             id="path2131"
                             style="fill:#0f1f47;fill-opacity:1;fill-rule:nonzero;stroke:none"
                             d="m 247.477,101.496 c -5.735,0 -10.383,0.891 -10.383,1.992 0,1.102 4.648,1.992 10.383,1.992 5.73,0 10.375,-0.89 10.375,-1.992 0,-1.101 -4.645,-1.992 -10.375,-1.992" /><path
                             id="path2133"
                             style="fill:#0f1f47;fill-opacity:1;fill-rule:nonzero;stroke:none"
                             d="m 261.77,89.059 -5.997,4.211 -0.05,0.429 1.422,0.641 c 0.285,0.14 0.285,0.367 0.144,0.504 l -3.766,3.176 -0.355,-0.032 -2.668,-3.929 c -0.184,-0.258 -0.117,-0.508 0.203,-0.563 l 1.789,-0.293 V 92.75 l -4.64,-6.555 h -0.762 l -4.641,6.555 v 0.453 l 1.793,0.293 c 0.32,0.055 0.387,0.305 0.203,0.563 l -2.668,3.929 -0.355,0.032 -3.516,-3.219 c -0.144,-0.137 -0.14,-0.36 0.137,-0.504 l 1.426,-0.598 -0.051,-0.429 -6.242,-4.211 -0.504,0.199 3.664,11.199 c 1.859,-0.836 6.129,-1.426 11.137,-1.449 5.004,0.023 9.273,0.613 11.136,1.449 l 3.664,-11.199 -0.503,-0.199" /><path
                             id="path2135"
                             style="fill:#0f1f47;fill-opacity:1;fill-rule:nonzero;stroke:none"
                             d="m 221.77,204.887 c 0,1.14 -0.922,2.066 -2.067,2.066 -1.141,0 -2.066,-0.926 -2.066,-2.066 0,-1.145 0.925,-2.071 2.066,-2.071 1.145,0 2.067,0.926 2.067,2.071" /><path
                             id="path2137"
                             style="fill:#0f1f47;fill-opacity:1;fill-rule:nonzero;stroke:none"
                             d="m 242.738,208.324 c 0,1.141 -0.929,2.067 -2.07,2.067 -1.141,0 -2.066,-0.926 -2.066,-2.067 0,-1.14 0.925,-2.066 2.066,-2.066 1.141,0 2.07,0.926 2.07,2.066" /><path
                             id="path2139"
                             style="fill:#0f1f47;fill-opacity:1;fill-rule:nonzero;stroke:none"
                             d="m 230.887,58.918 c 0,1.141 -0.926,2.066 -2.067,2.066 -1.14,0 -2.066,-0.925 -2.066,-2.066 0,-1.141 0.926,-2.066 2.066,-2.066 1.141,0 2.067,0.925 2.067,2.066" /><path
                             id="path2141"
                             style="fill:#0f1f47;fill-opacity:1;fill-rule:nonzero;stroke:none"
                             d="m 280.086,78.27 c -0.051,1.14 -1.012,2.027 -2.156,1.976 -1.137,-0.047 -2.024,-1.012 -1.977,-2.152 0.047,-1.137 1.016,-2.024 2.152,-1.973 1.141,0.047 2.028,1.008 1.981,2.149" /><path
                             id="path2143"
                             style="fill:#0f1f47;fill-opacity:1;fill-rule:nonzero;stroke:none"
                             d="m 176.402,167.012 c 0.797,1.144 1.196,2.363 1.192,3.633 0,1.445 -0.485,2.617 -3.071,4.406 l -7.461,5.32 -1.374,-1.976 c 0,0 7.648,-5.446 7.773,-5.532 1.316,-0.914 1.879,-1.578 1.879,-2.625 0.004,-0.66 -0.242,-1.383 -0.719,-2.07 -0.75,-1.078 -1.707,-1.418 -2.555,-1.422 -0.765,0 -1.593,0.539 -3.062,1.563 l -7.02,4.761 -1.347,-1.941 6.679,-4.524 c 1.86,-1.308 3.34,-2.203 4.715,-2.199 2.008,0.004 3.473,1.309 4.371,2.606" /><path
                             id="path2145"
                             style="fill:#0f1f47;fill-opacity:1;fill-rule:nonzero;stroke:none"
                             d="m 152.547,152.438 14.203,-4.981 0.785,2.152 -8.125,9.926 10.266,-4.062 0.765,2.097 -14.039,5.391 -0.781,-2.152 8.164,-9.938 -10.473,3.664 -0.765,-2.097" /><path
                             id="path2147"
                             style="fill:#0f1f47;fill-opacity:1;fill-rule:nonzero;stroke:none"
                             d="m 150.422,141.129 14.867,-2.207 0.352,2.383 -14.868,2.203 -0.351,-2.379" /><path
                             id="path2149"
                             style="fill:#0f1f47;fill-opacity:1;fill-rule:nonzero;stroke:none"
                             d="m 149.98,123.207 0.059,-2.496 14.836,6.027 -0.105,2.477 -15.231,4.543 0.012,-2.496 12.355,-3.465 -11.926,-4.59" /><path
                             id="path2151"
                             style="fill:#0f1f47;fill-opacity:1;fill-rule:nonzero;stroke:none"
                             d="m 160.875,94.137 c 0.883,-1.606 1.512,-2.211 2.441,-2.207 0.344,0 0.782,0.09 1.219,0.328 0.563,0.312 0.992,0.832 1.153,1.39 0.062,0.215 0.089,0.434 0.085,0.649 -0.003,0.894 -0.503,1.789 -1.023,2.73 l -0.309,0.559 -4.234,-2.277 z m 2.672,-4.555 c -2.125,0.004 -3.106,1.219 -4.461,3.668 l -1.766,3.164 13.242,7.184 1.141,-2.067 -5.504,-3.004 0.324,-0.593 c 0.926,-1.676 1.247,-1.93 3.606,-1.731 l 4.289,0.383 1.223,-2.223 -4.938,-0.422 c -0.996,-0.093 -1.777,-0.164 -2.414,0.016 -0.211,0.063 -0.465,0.195 -0.707,0.367 0.055,-0.269 0.156,-0.531 0.16,-0.804 0.004,-0.422 -0.058,-0.84 -0.183,-1.223 -0.289,-0.883 -0.918,-1.598 -1.871,-2.125 -0.711,-0.391 -1.418,-0.59 -2.141,-0.59" /><path
                             id="path2153"
                             style="fill:#0f1f47;fill-opacity:1;fill-rule:nonzero;stroke:none"
                             d="m 179.996,68.344 1.914,-1.457 9.117,11.941 -1.914,1.461 -9.117,-11.945" /><path
                             id="path2155"
                             style="fill:#0f1f47;fill-opacity:1;fill-rule:nonzero;stroke:none"
                             d="m 188.246,62.484 9.727,-5.062 0.945,1.824 -3.781,1.969 5.992,11.512 -2.137,1.109 -5.992,-11.508 -3.805,1.981 -0.949,-1.825" /><path
                             id="path2157"
                             style="fill:#0f1f47;fill-opacity:1;fill-rule:nonzero;stroke:none"
                             d="m 212.5,52.852 2.535,-0.707 -2.043,10.054 1.656,5.707 -2.293,0.66 -1.617,-5.664 -7.133,-7.445 2.469,-0.715 5.137,5.348 1.289,-7.238" /><path
                             id="path2159"
                             style="fill:#0f1f47;fill-opacity:1;fill-rule:nonzero;stroke:none"
                             d="m 258.359,73.395 7.629,-12.946 7.18,4.231 -1.043,1.769 -5.129,-3.019 -2.109,3.582 4.828,2.843 -1.024,1.731 -4.824,-2.84 -3.453,5.859 -2.055,-1.21" /><path
                             id="path2161"
                             style="fill:#0f1f47;fill-opacity:1;fill-rule:nonzero;stroke:none"
                             d="m 296.973,106.875 5.472,-6.547 0.852,2.59 -4.074,4.664 6.05,1.359 0.805,2.442 -8.281,-2.004 -5.879,7.051 -0.84,-2.551 4.442,-5.172 -6.637,-1.516 -0.813,-2.464 8.903,2.148" /><path
                             id="path2163"
                             style="fill:#0f1f47;fill-opacity:1;fill-rule:nonzero;stroke:none"
                             d="m 292.676,121.645 14.98,-1.223 0.68,8.308 -2.051,0.165 -0.484,-5.93 -4.141,0.336 0.453,5.586 -2.004,0.164 -0.457,-5.586 -6.781,0.555 -0.195,-2.375" /><path
                             id="path2165"
                             style="fill:#0f1f47;fill-opacity:1;fill-rule:nonzero;stroke:none"
                             d="m 300.484,146.492 c -2.925,0 -6.347,-1.594 -6.347,-4.547 0,-1.066 0.371,-2.504 1.695,-3.465 0.891,-0.648 2.051,-0.992 3.352,-0.992 1.488,0 4.175,0.422 5.589,2.364 0.485,0.671 0.731,1.449 0.731,2.281 0,1.152 -0.469,2.519 -1.707,3.41 -0.871,0.637 -2.02,0.949 -3.313,0.949 z m -1.183,-11.449 c -1.739,0 -3.332,0.469 -4.594,1.383 -2.269,1.644 -2.684,4.008 -2.684,5.386 0,5.083 4.778,7.114 8.364,7.114 1.718,0.004 3.297,-0.465 4.539,-1.367 2.531,-1.832 2.668,-4.586 2.668,-5.477 0,-4.434 -4.074,-7.039 -8.293,-7.039" /><path
                             id="path2167"
                             style="fill:#0f1f47;fill-opacity:1;fill-rule:nonzero;stroke:none"
                             d="m 288.238,97.258 c -1.347,0 -2.566,-0.567 -3.406,-1.891 -0.43,-0.676 -0.637,-1.406 -0.641,-2.14 -0.007,-1.7 1.067,-3.446 3.039,-4.696 1.305,-0.828 2.586,-1.234 3.731,-1.23 1.449,0 2.629,0.64 3.418,1.879 0.465,0.734 0.676,1.511 0.676,2.289 0,1.66 -1.051,3.289 -2.957,4.492 -1.332,0.848 -2.68,1.297 -3.86,1.297 z m 2.34,-12.246 c -1.519,0 -3.137,0.484 -4.695,1.472 -2.887,1.832 -3.942,4.454 -3.942,6.371 0,1.239 0.34,2.457 1.051,3.575 1.602,2.527 4.008,3.144 5.633,3.136 1.551,-0.004 3.187,-0.519 4.73,-1.5 1.86,-1.179 3.93,-3.367 3.93,-6.336 0,-1.23 -0.351,-2.441 -1.062,-3.566 -1.317,-2.074 -3.379,-3.152 -5.645,-3.152" /><path
                             id="path2169"
                             style="fill:#0f1f47;fill-opacity:1;fill-rule:nonzero;stroke:none"
                             d="m 248.805,67.465 c -1.09,0 -2.66,-0.535 -3.539,-2.137 -0.426,-0.777 -0.618,-1.723 -0.618,-2.695 0,-2.692 1.793,-6.469 5.071,-6.469 1.84,0 4.148,1.367 4.148,4.766 0,2.168 -1.527,6.535 -5.062,6.535 z m 0.769,-13.406 c -3.133,0 -5.855,2.109 -6.957,5.855 -0.246,0.832 -0.398,1.656 -0.398,2.457 0,1.5 0.254,2.688 0.867,3.813 1.391,2.543 3.934,3.41 5.871,3.41 1.09,0 2.145,-0.25 3.105,-0.778 2.54,-1.386 4.211,-4.605 4.211,-7.687 0,-1.336 -0.257,-2.594 -0.851,-3.672 -1.219,-2.219 -3.481,-3.398 -5.848,-3.398" /><path
                             id="path2171"
                             style="fill:#0f1f47;fill-opacity:1;fill-rule:nonzero;stroke:none"
                             d="m 166.332,108.562 2.02,0.571 -2.278,8.254 -14.543,-3.985 2.485,-8.351 1.972,0.558 -1.824,6.016 4.012,1.102 1.547,-5.465 1.933,0.547 -1.539,5.449 4.535,1.246 1.68,-5.942" /><path
                             id="path2173"
                             style="fill:#0f1f47;fill-opacity:1;fill-rule:nonzero;stroke:none"
                             d="m 170.148,77.164 c 2.086,-2.34 4.223,-2.18 4.223,-2.18 l 0.363,1.985 c 0,0 -1.644,0.051 -2.933,1.496 -0.563,0.629 -0.844,1.289 -0.844,1.875 0,0.488 0.188,0.914 0.57,1.258 1.043,0.925 2.821,-0.106 3.934,-0.551 0.859,-0.356 2.074,-0.852 3.293,-0.852 0.906,0 1.844,0.258 2.703,1.024 1,0.894 1.5,2.015 1.5,3.195 0,1.277 -0.496,2.41 -1.492,3.531 -1.918,2.145 -4.496,2.379 -4.496,2.379 l -0.512,-2.012 c 1.52,-0.351 2.668,-0.933 3.363,-1.718 0.551,-0.614 0.821,-1.301 0.821,-1.903 0,-0.566 -0.239,-1.097 -0.703,-1.511 -0.376,-0.336 -0.833,-0.457 -1.329,-0.446 -0.968,0 -2.121,0.551 -3.078,0.95 -1.824,0.754 -3.75,1.363 -5.472,-0.18 -0.879,-0.781 -1.344,-1.766 -1.344,-2.859 0,-1.161 0.457,-2.387 1.433,-3.481" /><path
                             id="path2175"
                             style="fill:#0f1f47;fill-opacity:1;fill-rule:nonzero;stroke:none"
                             d="m 297.559,163.402 c -0.676,0 -1.829,-0.386 -2.266,-1.511 -0.105,-0.282 -0.152,-0.571 -0.148,-0.864 0.007,-0.82 0.394,-1.675 0.796,-2.574 l 0.258,-0.582 4.328,1.949 -0.476,1.16 c -0.809,1.836 -1.332,2.422 -2.492,2.422 z m -8.875,-8.91 5.683,2.57 -0.281,0.637 c -0.774,1.75 -1.07,2.035 -3.441,2.047 h -4.301 l -1.028,2.32 4.961,-0.019 c 1.004,0.004 1.785,0.004 2.395,-0.231 0.199,-0.078 0.426,-0.203 0.637,-0.371 -0.016,0.129 -0.059,0.254 -0.059,0.383 -0.008,0.551 0.098,1.098 0.305,1.578 0.675,1.586 2.527,2.364 3.883,2.36 2.394,-0.004 3.308,-1.434 4.468,-4.063 0.043,-0.098 1.399,-3.219 1.399,-3.219 l -13.664,-6.156 -0.957,2.164" /></g></g></g></g></g></g></g></g></g></g></g><g
       id="g2177"><g
         clip-path="url(#clipPath2183)"
         id="g2179"><g
           id="g2185"><g
             id="g2187"><g
               clip-path="url(#clipPath2193)"
               id="g2189"><g
                 id="g2195" /><g
                 id="g2197"><g
                   clip-path="url(#clipPath2203)"
                   id="g2199"><g
                     id="g2205"><g
                       id="g2207"><g
                         clip-path="url(#clipPath2213)"
                         id="g2209"><g
                           id="g2215"><path
                             id="path2217"
                             style="fill:#0f1f47;fill-opacity:1;fill-rule:nonzero;stroke:none"
                             d="m 286.125,180.023 c -1.195,0 -2.313,-0.461 -3.48,-1.39 -1.184,-0.949 -2.438,-2.418 -2.438,-4.297 0,-1.305 0.707,-2.551 1.797,-3.918 l 0.996,-1.242 8.586,6.847 -0.656,0.821 c -1.594,2 -2.684,3.179 -4.805,3.179 z m -5.355,-11.316 c -1.559,1.949 -2.739,3.695 -2.739,5.949 0,1.91 0.867,4.09 3.067,5.844 1.457,1.164 3.105,1.793 4.8,1.793 2.09,0 3.77,-0.625 6.372,-3.891 l 2.375,-2.984 -11.747,-9.379 -2.128,2.668" /><path
                             id="path2219"
                             style="fill:#0f1f47;fill-opacity:1;fill-rule:nonzero;stroke:none"
                             d="m 279.371,197.297 c -13.984,4.945 -27.043,4.609 -38.176,2.121 0.364,-4.977 2.422,-10.289 5.567,-11.277 24.531,-7.614 42.394,-30.477 42.394,-57.43 0,-33.152 -27.023,-60.121 -60.234,-60.121 -33.215,0 -60.234,26.969 -60.234,60.121 0,18.441 8.613,35.961 23.117,47.32 -3.446,1.512 -6.383,3.961 -8.508,7.008 -1.098,-0.75 -2.16,-1.527 -3.137,-2.332 l -0.551,0.551 c 0.657,0.793 1.672,1.836 2.899,3.012 -1.789,3 -2.82,6.496 -2.82,10.234 0,0.582 0.039,1.156 0.085,1.726 -21.578,-15.73 -34.398,-40.73 -34.398,-67.519 0,-46.066 37.477,-83.543 83.547,-83.543 46.07,0 83.547,37.477 83.547,83.543 0,26.387 -12.063,50.629 -33.098,66.586 z m -48.469,19.719 c -11.543,0 -25.949,-3.926 -35.851,-9.766 -3,-1.766 -6.574,-5.059 -6.574,-10.684 0,-1.519 0.296,-2.968 0.824,-4.3 3.695,3.054 7.515,5.918 9.91,7.23 0.551,0.301 0.871,0.445 1.512,0.445 1.535,0 2.781,-1.25 2.781,-2.793 0,-1.179 -0.637,-2.136 -1.695,-2.601 -2.047,-0.895 -6.332,-2.664 -10.946,-5.055 2.133,-2.816 5.492,-4.644 9.282,-4.644 1.73,0 3.394,0.371 4.949,1.101 l 3.164,1.844 c 10.062,6.148 35.941,21.902 67.191,13.246 -11.859,10.703 -26.469,15.977 -44.547,15.977 z m 9.895,7.035 c -3.176,0 -5.777,2.246 -5.777,5.691 0,3.375 2.64,5.696 5.777,5.696 0.476,0 0.933,-0.083 1.375,-0.196 -0.66,4.774 -6.223,10.117 -13.395,12.52 -7.113,-2.383 -12.672,-7.766 -13.41,-12.516 0.442,0.113 0.895,0.192 1.371,0.192 3.422,0 5.778,-2.399 5.778,-5.696 0,-3.144 -2.469,-5.613 -5.657,-5.683 0.973,-1.774 1.907,-3.661 2.594,-5.688 3.945,0.688 7.832,1.063 11.449,1.063 2.965,0 5.844,-0.161 8.657,-0.446 0.371,1.629 0.925,3.332 1.574,5.09 -0.113,-0.008 -0.223,-0.027 -0.336,-0.027 z m -40.836,-45.324 c 5.937,0 11.492,3.043 14.754,7.925 -2.856,-0.726 -5.656,-1.668 -8.391,-2.832 l -0.008,0.016 -0.089,-0.051 c -1.911,-0.898 -3.957,-1.355 -6.082,-1.355 -4.735,0 -8.922,2.32 -11.508,5.871 -1.09,-0.606 -2.176,-1.239 -3.242,-1.903 3.203,-4.632 8.535,-7.671 14.566,-7.671 z m 23.508,11.851 c -0.735,0.547 -1.324,1.199 -1.742,1.918 -2.18,-1.058 -4.918,-2.422 -6.707,-3.422 2.539,0.559 5.847,1.27 8.449,1.504 z m 18.289,-1.133 c -1.731,2.469 -2.762,5.895 -3.067,9.371 -5.461,-1.406 -10.414,-3.296 -14.734,-5.269 0.82,-1.59 3.172,-2.715 4.965,-2.715 4.402,0 8.695,-0.488 12.836,-1.387 z m -12.836,-1.031 c -3.688,0 -7.32,-0.352 -10.883,-1.031 -3.434,-6.742 -10.473,-11.074 -18.078,-11.074 -1.871,0 -3.672,0.273 -5.391,0.746 -14.617,-10.864 -23.336,-28.137 -23.336,-46.344 0,-31.82 25.879,-57.703 57.688,-57.703 31.808,0 57.687,25.883 57.687,57.703 0,31.816 -25.879,57.703 -57.687,57.703 z m -28.961,25.867 c -9.777,0 -17.727,-7.972 -17.727,-17.777 0,-3.07 0.778,-5.961 2.153,-8.484 0.914,0.828 1.886,1.687 2.902,2.554 -0.863,1.824 -1.359,3.848 -1.359,5.992 0,5.332 2.691,9.739 7.777,12.739 2.922,1.722 6.231,3.277 9.731,4.633 -1.137,0.226 -2.297,0.343 -3.477,0.343 z m 115.055,-83.57 c 0,-47.399 -38.621,-85.961 -86.094,-85.961 -47.473,0 -86.094,38.562 -86.094,85.961 0,28.434 14.039,54.941 37.567,71 2.312,8.617 10.195,14.988 19.566,14.988 2.535,0 4.988,-0.48 7.324,-1.383 3.149,1.039 6.403,1.903 9.649,2.571 -0.914,2.609 -2.25,5.082 -3.52,7.222 0,0 0.027,-0.004 0.07,-0.011 -0.023,0.015 -0.05,0.027 -0.074,0.043 l 1.797,1.793 c 0.457,-0.25 0.973,-0.407 1.531,-0.407 1.77,0 3.215,1.442 3.215,3.215 0,1.774 -1.445,3.215 -3.215,3.215 -1.547,0 -2.906,-0.992 -3.617,-2.051 0,0 -0.418,1.446 -0.418,3.352 -0.012,6.172 6.727,13.226 16.074,16.203 9.34,-2.906 16.082,-10.012 16.078,-16.191 0,-2.129 -0.421,-3.364 -0.421,-3.364 -0.715,0.864 -1.879,2.051 -3.637,2.051 -1.77,0 -3.215,-1.441 -3.215,-3.215 0,-1.773 1.445,-3.215 3.215,-3.215 0.621,0 1.195,0.188 1.687,0.493 l 1.743,-1.739 c 0.039,0.008 0.066,0.016 0.066,0.016 -0.984,-2.352 -1.703,-4.52 -2.191,-6.594 15.476,-2.086 28.539,-8.637 38.925,-19.555 l -0.007,-0.011 c 21.605,-16.418 33.996,-41.325 33.996,-68.426" /></g></g></g></g></g></g></g></g></g></g></g><g
       id="g2221"><g
         clip-path="url(#clipPath2227)"
         id="g2223"><g
           id="g2229"><g
             id="g2231"><g
               clip-path="url(#clipPath2237)"
               id="g2233"><g
                 id="g2239" /><g
                 id="g2241"><g
                   clip-path="url(#clipPath2247)"
                   id="g2243"><g
                     id="g2249"><g
                       id="g2251"><g
                         clip-path="url(#clipPath2257)"
                         id="g2253"><g
                           id="g2259"><path
                             id="path2261"
                             style="fill:#0f1f47;fill-opacity:1;fill-rule:nonzero;stroke:none"
                             d="m 206.574,121.84 c 0,0.66 0.164,0.793 0.524,0.793 0.644,0 1.297,-0.715 1.297,-2.039 0,-1.606 -0.817,-2.059 -1.454,-2.059 -0.175,0 -0.273,0.024 -0.324,0.051 -0.035,0.016 -0.043,0.187 -0.043,0.375 z m 0.367,-3.68 c 0.922,0 1.684,0.18 2.184,0.664 0.355,0.34 0.645,0.895 0.645,1.539 0,1.864 -1.415,2.664 -3.141,2.664 h -1.934 v -0.293 c 0.543,-0.046 0.606,-0.097 0.606,-0.902 v -2.473 c 0,-0.808 -0.063,-0.859 -0.547,-0.906 v -0.293 h 2.187" /><path
                             id="path2263"
                             style="fill:#0f1f47;fill-opacity:1;fill-rule:nonzero;stroke:none"
                             d="m 211.812,120.406 c 0,1.356 0.508,2.344 1.243,2.344 0.648,0 0.996,-0.621 0.996,-1.977 0,-1.503 -0.539,-2.335 -1.184,-2.335 -0.574,0 -1.055,0.66 -1.055,1.968 z m 3.633,0.129 c 0,1.602 -1.093,2.606 -2.531,2.606 -1.512,0 -2.492,-1.102 -2.492,-2.481 0,-1.211 0.808,-2.609 2.598,-2.609 1.371,0 2.425,1.004 2.425,2.484" /><path
                             id="path2265"
                             style="fill:#0f1f47;fill-opacity:1;fill-rule:nonzero;stroke:none"
                             d="m 222.055,118.16 v 0.293 c -0.571,0.051 -0.598,0.082 -0.578,0.867 l 0.074,2.512 c 0.027,0.828 0.039,0.852 0.578,0.902 v 0.293 h -2.34 v -0.293 c 0.559,-0.05 0.582,-0.074 0.574,-0.902 l -0.023,-2.641 h -0.031 l -1.442,3.754 h -0.406 l -1.371,-3.488 h -0.012 l -0.055,1.66 c -0.023,0.645 -0.011,1.004 0.016,1.235 0.031,0.281 0.195,0.347 0.68,0.382 v 0.293 h -1.848 v -0.293 c 0.359,-0.027 0.5,-0.101 0.547,-0.382 0.039,-0.231 0.082,-0.625 0.117,-1.309 l 0.086,-1.512 c 0.051,-0.945 -0.008,-1.027 -0.598,-1.078 v -0.293 h 1.758 l 1.309,2.965 1.148,-2.965 h 1.817" /><path
                             id="path2267"
                             style="fill:#0f1f47;fill-opacity:1;fill-rule:nonzero;stroke:none"
                             d="m 224.488,121.832 c 0,0.805 0.059,0.856 0.574,0.902 v 0.293 h -2.425 v -0.293 c 0.519,-0.046 0.578,-0.097 0.578,-0.902 v -2.473 c 0,-0.808 -0.059,-0.859 -0.578,-0.906 v -0.293 h 2.425 v 0.293 c -0.515,0.047 -0.574,0.098 -0.574,0.906 v 2.473" /><path
                             id="path2269"
                             style="fill:#0f1f47;fill-opacity:1;fill-rule:nonzero;stroke:none"
                             d="m 212.43,132.062 h -0.645 l -2.769,-3.535 h -0.012 v 1.379 c 0,0.785 0.027,1.196 0.058,1.43 0.04,0.262 0.239,0.359 0.735,0.387 v 0.289 h -1.867 v -0.289 c 0.332,-0.02 0.527,-0.125 0.562,-0.387 0.031,-0.234 0.063,-0.645 0.063,-1.43 v -1.379 c 0,-0.55 -0.02,-0.652 -0.164,-0.863 -0.114,-0.156 -0.301,-0.207 -0.571,-0.226 v -0.297 h 1.653 l 2.496,3.113 h 0.011 v -1.008 c 0,-0.785 -0.027,-1.195 -0.058,-1.43 -0.039,-0.257 -0.238,-0.359 -0.734,-0.378 v -0.297 h 1.91 v 0.297 c -0.375,0.011 -0.571,0.121 -0.606,0.378 -0.031,0.235 -0.062,0.645 -0.062,1.43 v 2.816" /><path
                             id="path2271"
                             style="fill:#0f1f47;fill-opacity:1;fill-rule:nonzero;stroke:none"
                             d="m 215.465,132.062 c -0.52,-1.347 -1.223,-3.195 -1.492,-3.898 -0.246,-0.648 -0.395,-0.68 -0.754,-0.726 v -0.297 h 2.418 v 0.297 l -0.258,0.027 c -0.277,0.031 -0.277,0.101 -0.191,0.363 0.132,0.418 0.722,1.895 1,2.625 0.234,-0.637 0.71,-2.066 0.832,-2.418 0.156,-0.457 0.113,-0.539 -0.223,-0.578 l -0.227,-0.019 v -0.297 h 1.813 v 0.297 c -0.43,0.05 -0.531,0.089 -0.824,0.769 -0.047,0.105 -0.957,2.328 -1.52,3.855 h -0.574" /><path
                             id="path2273"
                             style="fill:#0f1f47;fill-opacity:1;fill-rule:nonzero;stroke:none"
                             d="m 218.84,130.469 c 0.156,0.433 0.598,1.261 1.332,1.261 0.39,0 0.687,-0.25 0.687,-0.738 0,-0.441 -0.293,-0.687 -0.746,-0.894 L 220,130.043 c -0.613,-0.285 -1.309,-0.676 -1.309,-1.477 0,-0.843 0.614,-1.535 1.789,-1.535 0.231,0 0.469,0.031 0.688,0.09 0.172,0.043 0.289,0.074 0.387,0.106 0.031,0.289 0.086,0.656 0.168,1.168 l -0.332,0.05 c -0.164,-0.492 -0.426,-1.023 -1.02,-1.023 -0.379,0 -0.648,0.293 -0.648,0.648 0,0.375 0.293,0.594 0.769,0.813 l 0.168,0.074 c 0.688,0.313 1.278,0.695 1.278,1.57 0,0.922 -0.739,1.594 -1.899,1.594 -0.301,0 -0.605,-0.059 -0.812,-0.125 -0.223,-0.078 -0.379,-0.137 -0.469,-0.18 -0.063,-0.343 -0.156,-0.75 -0.25,-1.25 l 0.332,-0.097" /><path
                             id="path2275"
                             style="fill:#0f1f47;fill-opacity:1;fill-rule:nonzero;stroke:none"
                             d="m 209.102,139.797 c 0,0.805 0.058,0.859 0.574,0.906 v 0.289 h -2.422 v -0.289 c 0.516,-0.047 0.574,-0.101 0.574,-0.906 v -2.473 c 0,-0.808 -0.058,-0.859 -0.574,-0.902 v -0.297 h 2.422 v 0.297 c -0.516,0.043 -0.574,0.094 -0.574,0.902 v 2.473" /><path
                             id="path2277"
                             style="fill:#0f1f47;fill-opacity:1;fill-rule:nonzero;stroke:none"
                             d="m 212.066,139.895 c 0,0.386 0.016,0.574 0.149,0.64 0.121,0.063 0.293,0.067 0.527,0.067 0.238,0 0.559,-0.02 0.715,-0.215 0.121,-0.141 0.25,-0.344 0.367,-0.742 l 0.324,0.054 c -0.043,0.281 -0.203,1.063 -0.269,1.293 h -3.715 v -0.289 c 0.57,-0.047 0.629,-0.101 0.629,-0.906 v -2.473 c 0,-0.808 -0.059,-0.859 -0.563,-0.902 v -0.297 h 2.434 v 0.297 c -0.539,0.043 -0.598,0.094 -0.598,0.902 v 2.571" /><path
                             id="path2279"
                             style="fill:#0f1f47;fill-opacity:1;fill-rule:nonzero;stroke:none"
                             d="m 216.246,139.895 c 0,0.386 0.012,0.574 0.149,0.64 0.117,0.063 0.289,0.067 0.523,0.067 0.238,0 0.559,-0.02 0.719,-0.215 0.117,-0.141 0.246,-0.344 0.363,-0.742 l 0.324,0.054 c -0.043,0.281 -0.203,1.063 -0.269,1.293 h -3.711 v -0.289 c 0.566,-0.047 0.625,-0.101 0.625,-0.906 v -2.473 c 0,-0.808 -0.059,-0.859 -0.559,-0.902 v -0.297 h 2.43 v 0.297 c -0.539,0.043 -0.594,0.094 -0.594,0.902 v 2.571" /><path
                             id="path2281"
                             style="fill:#0f1f47;fill-opacity:1;fill-rule:nonzero;stroke:none"
                             d="m 219.82,141.047 c -0.515,-1.348 -1.218,-3.199 -1.488,-3.902 -0.25,-0.645 -0.398,-0.68 -0.758,-0.723 v -0.297 h 2.422 v 0.297 l -0.258,0.027 c -0.277,0.031 -0.277,0.098 -0.195,0.36 0.137,0.418 0.727,1.894 1.004,2.629 0.23,-0.637 0.711,-2.071 0.832,-2.418 0.156,-0.458 0.109,-0.54 -0.227,-0.579 l -0.226,-0.019 v -0.297 h 1.816 v 0.297 c -0.43,0.047 -0.531,0.086 -0.824,0.769 -0.047,0.106 -0.957,2.329 -1.52,3.856 h -0.578" /><path
                             id="path2283"
                             style="fill:#0f1f47;fill-opacity:1;fill-rule:nonzero;stroke:none"
                             d="m 239.328,118.16 v 0.293 c -0.57,0.051 -0.598,0.082 -0.574,0.871 l 0.074,2.508 c 0.024,0.828 0.035,0.852 0.574,0.902 v 0.293 h -2.343 v -0.293 c 0.562,-0.05 0.586,-0.074 0.578,-0.902 l -0.024,-2.641 h -0.031 l -1.441,3.754 h -0.407 l -1.367,-3.488 h -0.015 l -0.051,1.66 c -0.028,0.645 -0.02,1.004 0.011,1.235 0.032,0.281 0.196,0.347 0.684,0.382 v 0.293 h -1.851 v -0.293 c 0.363,-0.027 0.5,-0.101 0.546,-0.382 0.039,-0.231 0.082,-0.625 0.121,-1.309 l 0.083,-1.512 c 0.05,-0.945 -0.008,-1.027 -0.602,-1.078 v -0.293 h 1.762 l 1.308,2.965 1.145,-2.965 h 1.82" /><path
                             id="path2285"
                             style="fill:#0f1f47;fill-opacity:1;fill-rule:nonzero;stroke:none"
                             d="m 241.762,121.832 c 0,0.805 0.062,0.859 0.574,0.902 v 0.293 h -2.426 v -0.293 c 0.52,-0.043 0.578,-0.097 0.578,-0.902 v -2.473 c 0,-0.808 -0.058,-0.859 -0.578,-0.906 v -0.293 h 2.426 v 0.293 c -0.512,0.047 -0.574,0.098 -0.574,0.906 v 2.473" /><path
                             id="path2287"
                             style="fill:#0f1f47;fill-opacity:1;fill-rule:nonzero;stroke:none"
                             d="m 247.332,123.082 h -0.644 l -2.77,-3.535 h -0.016 v 1.379 c 0,0.785 0.032,1.195 0.059,1.426 0.039,0.265 0.238,0.363 0.734,0.382 v 0.293 h -1.863 v -0.293 c 0.328,-0.015 0.523,-0.117 0.559,-0.382 0.031,-0.231 0.062,-0.641 0.062,-1.426 v -1.379 c 0,-0.555 -0.015,-0.652 -0.164,-0.859 -0.117,-0.157 -0.301,-0.211 -0.57,-0.235 v -0.293 h 1.656 l 2.492,3.11 h 0.016 v -1.004 c 0,-0.786 -0.031,-1.2 -0.063,-1.43 -0.039,-0.262 -0.238,-0.359 -0.734,-0.383 v -0.293 h 1.91 v 0.293 c -0.371,0.016 -0.57,0.121 -0.605,0.383 -0.032,0.23 -0.059,0.644 -0.059,1.43 v 2.816" /><path
                             id="path2289"
                             style="fill:#0f1f47;fill-opacity:1;fill-rule:nonzero;stroke:none"
                             d="m 249.508,121.113 h 0.961 l -0.473,-1.433 h -0.023 z m 0.953,1.621 0.227,-0.027 c 0.273,-0.039 0.289,-0.113 0.191,-0.383 l -0.266,-0.762 h -1.23 l -0.227,0.719 c -0.097,0.321 -0.097,0.395 0.246,0.434 l 0.219,0.019 v 0.293 h -1.746 v -0.293 c 0.383,-0.05 0.496,-0.082 0.742,-0.711 l 1.496,-3.867 0.52,-0.105 0.508,1.414 c 0.324,0.89 0.644,1.773 0.929,2.539 0.239,0.648 0.371,0.687 0.739,0.73 v 0.293 h -2.348 v -0.293" /><path
                             id="path2291"
                             style="fill:#0f1f47;fill-opacity:1;fill-rule:nonzero;stroke:none"
                             d="m 239.27,130.812 c 0,0.809 0.058,0.86 0.687,0.911 v 0.289 h -2.617 v -0.289 c 0.598,-0.051 0.656,-0.102 0.656,-0.911 v -3.281 h -0.129 c -0.5,0 -0.699,0.094 -0.82,0.227 -0.09,0.113 -0.184,0.308 -0.277,0.726 h -0.317 c 0.031,-0.625 0.074,-1.144 0.09,-1.527 h 0.234 c 0.114,0.172 0.188,0.188 0.391,0.188 h 2.984 c 0.196,0 0.231,-0.047 0.352,-0.188 h 0.23 c 0.012,0.316 0.047,0.953 0.086,1.504 l -0.332,0.023 c -0.109,-0.449 -0.191,-0.644 -0.304,-0.769 -0.129,-0.137 -0.375,-0.184 -0.735,-0.184 h -0.179 v 3.281" /><path
                             id="path2293"
                             style="fill:#0f1f47;fill-opacity:1;fill-rule:nonzero;stroke:none"
                             d="m 243.188,130.812 c 0,0.809 0.062,0.86 0.578,0.911 v 0.289 h -2.426 v -0.289 c 0.515,-0.051 0.578,-0.102 0.578,-0.911 v -2.468 c 0,-0.813 -0.063,-0.86 -0.578,-0.906 v -0.293 h 2.426 v 0.293 c -0.516,0.046 -0.578,0.093 -0.578,0.906 v 2.468" /><path
                             id="path2295"
                             style="fill:#0f1f47;fill-opacity:1;fill-rule:nonzero;stroke:none"
                             d="m 245.781,129.391 c 0,1.355 0.512,2.343 1.242,2.343 0.645,0 1,-0.621 1,-1.976 0,-1.504 -0.543,-2.336 -1.183,-2.336 -0.578,0 -1.059,0.66 -1.059,1.969 z m 3.633,0.125 c 0,1.605 -1.094,2.605 -2.527,2.605 -1.516,0 -2.496,-1.098 -2.496,-2.476 0,-1.211 0.808,-2.614 2.597,-2.614 1.371,0 2.426,1.004 2.426,2.485" /><path
                             id="path2297"
                             style="fill:#0f1f47;fill-opacity:1;fill-rule:nonzero;stroke:none"
                             d="m 241.48,136.125 v 0.297 c -0.57,0.051 -0.601,0.082 -0.578,0.867 l 0.078,2.508 c 0.02,0.828 0.036,0.855 0.575,0.906 v 0.293 h -2.344 v -0.293 c 0.562,-0.051 0.582,-0.078 0.574,-0.906 l -0.019,-2.633 h -0.032 l -1.445,3.746 h -0.402 l -1.371,-3.484 H 236.5 l -0.051,1.66 c -0.023,0.644 -0.015,1 0.016,1.234 0.027,0.278 0.191,0.344 0.68,0.383 v 0.293 h -1.848 v -0.293 c 0.359,-0.031 0.5,-0.105 0.543,-0.383 0.039,-0.234 0.086,-0.629 0.121,-1.308 l 0.082,-1.512 c 0.051,-0.945 -0.004,-1.027 -0.598,-1.078 v -0.297 h 1.758 l 1.313,2.969 1.144,-2.969 h 1.82" /><path
                             id="path2299"
                             style="fill:#0f1f47;fill-opacity:1;fill-rule:nonzero;stroke:none"
                             d="m 242.637,137.324 c 0,-0.808 -0.059,-0.859 -0.559,-0.902 v -0.297 h 3.547 c 0.004,0.133 0.043,0.676 0.082,1.238 l -0.328,0.024 c -0.074,-0.367 -0.16,-0.578 -0.277,-0.699 -0.118,-0.126 -0.368,-0.172 -0.766,-0.172 h -0.125 c -0.285,0 -0.301,0 -0.301,0.261 v 1.45 h 0.375 c 0.645,0 0.664,-0.047 0.738,-0.618 h 0.332 v 1.766 h -0.332 c -0.074,-0.656 -0.093,-0.703 -0.738,-0.703 h -0.375 v 1.223 c 0,0.386 0.016,0.574 0.149,0.64 0.121,0.063 0.296,0.07 0.523,0.07 0.301,0 0.633,-0.046 0.797,-0.222 0.125,-0.137 0.25,-0.414 0.367,-0.778 l 0.328,0.055 c -0.039,0.367 -0.195,1.133 -0.262,1.336 h -3.808 v -0.293 c 0.574,-0.047 0.633,-0.098 0.633,-0.906 v -2.473" /><path
                             id="path2301"
                             style="fill:#0f1f47;fill-opacity:1;fill-rule:nonzero;stroke:none"
                             d="m 247.75,139.078 h 0.961 l -0.473,-1.43 h -0.023 z m 0.953,1.625 0.227,-0.031 c 0.273,-0.035 0.289,-0.113 0.191,-0.383 l -0.269,-0.762 h -1.227 l -0.227,0.719 c -0.097,0.324 -0.097,0.399 0.25,0.438 l 0.215,0.019 v 0.293 h -1.746 v -0.293 c 0.383,-0.051 0.496,-0.086 0.742,-0.715 l 1.5,-3.867 0.516,-0.105 0.512,1.414 c 0.316,0.89 0.64,1.777 0.925,2.539 0.239,0.648 0.376,0.687 0.743,0.734 v 0.293 h -2.352 v -0.293" /><path
                             id="path2303"
                             style="fill:#0f1f47;fill-opacity:1;fill-rule:nonzero;stroke:none"
                             d="m 255.492,145.66 h -18.847 c -2.786,0 -4.965,0.625 -6.485,1.805 0,-6.746 -0.004,-24.32 -0.004,-26.434 0,-2.011 0.489,-4.906 2.801,-6.269 1.125,-0.657 2.793,-0.965 5.258,-0.965 l 17.277,-0.004 z m -34.304,0 h -18.641 v -31.867 l 17.07,0.004 c 2.461,0 4.129,0.308 5.254,0.965 2.317,1.363 2.801,4.047 2.801,6.062 0,0 0.008,19.571 0.008,26.699 -1.532,-1.207 -3.723,-1.863 -6.492,-1.863 z m 17.027,-34.133 c -2.965,0 -4.969,0.403 -6.512,1.309 -1.195,0.703 -2.117,1.68 -2.785,2.883 -0.672,-1.203 -1.598,-2.18 -2.789,-2.883 -1.543,-0.906 -3.551,-1.309 -6.512,-1.309 l -19.551,-0.004 v 36.407 h 21.122 c 4.14,0 6.324,1.523 6.496,4.531 h 2.476 c 0.168,-2.961 2.172,-4.531 6.485,-4.531 h 21.328 v -36.407 l -19.758,0.004" /><path
                             id="path2305"
                             style="fill:#0f1f47;fill-opacity:1;fill-rule:nonzero;stroke:none"
                             d="m 261.023,114.141 v 37.91 h -27.418 l -0.312,0.773 c -0.481,1.184 -1.336,2.278 -4.332,2.278 -3,0 -3.852,-1.094 -4.332,-2.278 l -0.313,-0.773 c 0,0 -25.156,0 -27.414,0 0,-2.328 0,-37.91 0,-37.91 h -2.48 v 1.152 l -2.379,-0.731 c -0.273,-0.933 -1.133,-1.621 -2.156,-1.621 -1.246,0 -2.258,1.012 -2.258,2.258 0,1.246 1.012,2.258 2.258,2.258 0.543,0 1.039,-0.203 1.429,-0.523 l 3.106,0.953 v 3.051 l -2.336,-0.418 c -0.344,-0.809 -1.145,-1.375 -2.078,-1.375 -1.242,0 -2.254,1.011 -2.254,2.261 0,1.246 1.012,2.258 2.254,2.258 0.648,0 1.226,-0.273 1.637,-0.707 l 2.777,0.496 v 3.109 l -2.442,-0.109 c -0.39,-0.656 -1.105,-1.101 -1.929,-1.101 -1.246,0 -2.258,1.011 -2.258,2.257 0,1.25 1.012,2.258 2.258,2.258 0.754,0 1.414,-0.371 1.824,-0.937 l 2.547,0.113 v 3.375 l -2.492,0.09 c -0.41,-0.57 -1.078,-0.949 -1.836,-0.949 -1.246,0 -2.258,1.011 -2.258,2.257 0,1.246 1.012,2.258 2.258,2.258 0.816,0 1.523,-0.437 1.922,-1.086 l 2.406,-0.09 v 3.114 l -2.727,0.468 c -0.41,-0.437 -0.992,-0.718 -1.644,-0.718 -1.246,0 -2.258,1.015 -2.258,2.261 0,1.247 1.012,2.258 2.258,2.258 0.926,0 1.722,-0.558 2.07,-1.359 l 2.301,-0.395 v 3.055 l -2.981,0.91 c -0.39,-0.32 -0.886,-0.523 -1.433,-0.523 -1.242,0 -2.254,1.011 -2.254,2.258 0,1.25 1.012,2.257 2.254,2.257 1.027,0 1.883,-0.683 2.16,-1.621 l 2.254,-0.687 v 2.953 l -3.293,1.422 c -0.356,-0.235 -0.781,-0.375 -1.242,-0.375 -1.246,0 -2.258,1.012 -2.258,2.258 0,1.246 1.012,2.261 2.258,2.261 1.109,0 2.031,-0.808 2.218,-1.867 l 2.317,-1 v 2.699 c 0,0 27.051,0 28.367,0 1.152,2.012 3.145,3.051 6.172,3.051 3.023,0 5.019,-1.039 6.172,-3.051 1.312,0 28.367,0 28.367,0 v -40.386 h -2.477" /></g></g></g></g></g></g></g></g></g></g></g></g></svg>
